<svg xmlns="http://www.w3.org/2000/svg" width="27.292" height="19.189" viewBox="0 0 27.292 19.189">
  <path id="Icon_awesome-youtube" data-name="Icon awesome-youtube" d="M27.771,7.5a3.429,3.429,0,0,0-2.413-2.429C23.23,4.5,14.7,4.5,14.7,4.5s-8.534,0-10.663.574A3.429,3.429,0,0,0,1.62,7.5a35.974,35.974,0,0,0-.57,6.612,35.974,35.974,0,0,0,.57,6.612,3.378,3.378,0,0,0,2.413,2.39c2.128.574,10.663.574,10.663.574s8.534,0,10.663-.574a3.378,3.378,0,0,0,2.413-2.39,35.974,35.974,0,0,0,.57-6.612,35.974,35.974,0,0,0-.57-6.612ZM11.9,18.172V10.056l7.133,4.058L11.9,18.172Z" transform="translate(-1.05 -4.5)"/>
</svg>
