<svg xmlns="http://www.w3.org/2000/svg" width="16.671" height="19.189" viewBox="0 0 16.671 19.189">
  <path id="Icon_simple-tiktok" data-name="Icon simple-tiktok" d="M11.124.016C12.172,0,13.211.008,14.251,0a4.98,4.98,0,0,0,1.4,3.334,5.639,5.639,0,0,0,3.39,1.431V7.987a8.558,8.558,0,0,1-3.358-.776,9.879,9.879,0,0,1-1.3-.744c-.008,2.335.008,4.669-.016,7a6.107,6.107,0,0,1-1.079,3.15,5.957,5.957,0,0,1-4.725,2.567A5.83,5.83,0,0,1,5.3,18.358a6.029,6.029,0,0,1-2.918-4.565c-.016-.4-.024-.8-.008-1.191A6.019,6.019,0,0,1,9.357,7.26c.016,1.183-.032,2.367-.032,3.55a2.743,2.743,0,0,0-3.5,1.7,3.172,3.172,0,0,0-.112,1.287,2.721,2.721,0,0,0,2.8,2.295A2.686,2.686,0,0,0,10.725,14.8a1.845,1.845,0,0,0,.328-.848c.08-1.431.048-2.854.056-4.286.008-3.222-.008-6.436.016-9.651Z" transform="translate(-2.369)"/>
</svg>
