<svg xmlns="http://www.w3.org/2000/svg" width="23.627" height="19.189" viewBox="0 0 23.627 19.189">
  <path id="Icon_awesome-twitter" data-name="Icon awesome-twitter" d="M21.2,8.163c.015.21.015.42.015.63A13.683,13.683,0,0,1,7.436,22.57,13.684,13.684,0,0,1,0,20.4a10.017,10.017,0,0,0,1.169.06,9.7,9.7,0,0,0,6.012-2.069,4.851,4.851,0,0,1-4.528-3.358,6.107,6.107,0,0,0,.915.075,5.121,5.121,0,0,0,1.274-.165A4.843,4.843,0,0,1,.959,10.187v-.06a4.877,4.877,0,0,0,2.189.615,4.85,4.85,0,0,1-1.5-6.476,13.764,13.764,0,0,0,9.985,5.067,5.466,5.466,0,0,1-.12-1.109,4.847,4.847,0,0,1,8.38-3.313,9.534,9.534,0,0,0,3.073-1.169,4.829,4.829,0,0,1-2.129,2.669,9.707,9.707,0,0,0,2.788-.75,10.409,10.409,0,0,1-2.429,2.5Z" transform="translate(0 -3.381)"/>
</svg>
