<svg id="Group_32" data-name="Group 32" xmlns="http://www.w3.org/2000/svg" width="394.491" height="311.608" viewBox="0 0 394.491 311.608">
  <path id="Path_45" data-name="Path 45" d="M151.159,62.9a9.136,9.136,0,0,0,1.213,4.532,8.833,8.833,0,0,0,7.746,4.532h47.029a8.833,8.833,0,0,0,7.746-4.532,9.073,9.073,0,0,0,0-9.063L191.378,17.1a8.887,8.887,0,0,0-15.493,0L152.371,58.369A9.136,9.136,0,0,0,151.159,62.9Z" transform="translate(-48.599 -3.928)" fill="#f2f2f2"/>
  <path id="Path_46" data-name="Path 46" d="M276.882,122.079a5.154,5.154,0,0,0,.684,2.556,4.983,4.983,0,0,0,4.37,2.556h26.53a4.983,4.983,0,0,0,4.37-2.556,5.118,5.118,0,0,0,0-5.113L299.571,96.242a5.013,5.013,0,0,0-8.74,0l-13.265,23.281a5.154,5.154,0,0,0-.684,2.556Z" transform="translate(-89.021 -29.277)" fill="#f2f2f2"/>
  <path id="Path_47" data-name="Path 47" d="M23.882,121.079a5.154,5.154,0,0,0,.684,2.556,4.983,4.983,0,0,0,4.37,2.556h26.53a4.983,4.983,0,0,0,4.37-2.556,5.118,5.118,0,0,0,0-5.113L46.571,95.242a5.013,5.013,0,0,0-8.74,0L24.566,118.522A5.154,5.154,0,0,0,23.882,121.079Z" transform="translate(-7.678 -28.964)" fill="#3f3d56"/>
  <path id="Path_48" data-name="Path 48" d="M489.882,88.516a5.151,5.151,0,0,0,.664,2.521,5.224,5.224,0,0,0,4.583,2.592h11.216a5.224,5.224,0,0,0,4.583-2.592,5.118,5.118,0,0,0-.02-5.077l-5.688-15.52a5.26,5.26,0,0,0-4.537-2.755,4.984,4.984,0,0,0-4.316,2.556l-5.8,15.718A5.154,5.154,0,0,0,489.882,88.516Z" transform="translate(-157.503 -21.152)" fill="#3f3d56"/>
  <path id="Path_49" data-name="Path 49" d="M307.144,132.109h-26.53a6.571,6.571,0,0,1-4.872-1.852,2.964,2.964,0,0,1,0-4.176l13.266-14.808a7.336,7.336,0,0,1,9.744,0l13.265,14.808a2.964,2.964,0,0,1,0,4.176A6.571,6.571,0,0,1,307.144,132.109ZM293.879,110.8a5.233,5.233,0,0,0-3.867,1.4c-2.065,6.292-6.4,11.276-13.265,14.808a1.588,1.588,0,0,0,0,2.328,5.233,5.233,0,0,0,3.868,1.4h26.53a5.233,5.233,0,0,0,3.868-1.4,1.588,1.588,0,0,0,0-2.328L297.747,112.2A5.232,5.232,0,0,0,293.879,110.8Z" transform="translate(-88.378 -34.195)" fill="#3f3d56"/>
  <path id="Path_50" data-name="Path 50" d="M185.8,68.123a9.994,9.994,0,0,1-5.683-1.791L141.207,39.566a10.226,10.226,0,0,1-4.422-9.254,10.392,10.392,0,0,1,1.714-5.035,10.211,10.211,0,0,1,3.986-3.472L184.817,1.044a9.927,9.927,0,0,1,10.12.748,10.224,10.224,0,0,1,4.422,9.254l-3.421,47.527a10.389,10.389,0,0,1-1.713,5.035,10.206,10.206,0,0,1-3.986,3.472,10.054,10.054,0,0,1-4.437,1.043Zm3.45-65.681a7.673,7.673,0,0,0-3.386.8C175.584,13.7,164.921,23.814,143.534,24a7.8,7.8,0,0,0-3.044,2.647,7.937,7.937,0,0,0-1.3,3.844,7.8,7.8,0,0,0,3.373,7.061l38.909,26.766a7.582,7.582,0,0,0,7.722.571,7.8,7.8,0,0,0,3.044-2.647,7.925,7.925,0,0,0,1.3-3.843l3.421-47.527a7.8,7.8,0,0,0-3.373-7.061,7.629,7.629,0,0,0-4.336-1.366Z" transform="translate(-43.969 0)" fill="#3f3d56"/>
  <rect id="Rectangle_32" data-name="Rectangle 32" width="360.197" height="1.375" transform="translate(0 96.54)" fill="#3f3d56"/>
  <path id="Path_51" data-name="Path 51" d="M101.2,62.682C84.793,67.451,77.51,82.343,77.437,82.5l1.221.6c.071-.147,7.045-14.378,22.711-19.036L100.164,70.1a41.079,41.079,0,0,1,10.522-8.2,40.645,40.645,0,0,1-12.422-4.737l2.936,5.512Z" transform="translate(-24.897 -17.865)" fill="#dcc43e"/>
  <path id="Path_52" data-name="Path 52" d="M245.047,44.806l-.352,1.328c.156.042,15.259,4.315,22.713,19.033l-6.085-.066a41.192,41.192,0,0,1,9.921,8.935,42.016,42.016,0,0,1,2.262-13.252l-4.793,3.956c-7.7-15.435-23.5-19.89-23.666-19.934Z" transform="translate(-78.672 -14.002)" fill="#dcc43e"/>
  <path id="Path_53" data-name="Path 53" d="M358.952,67.035a41.047,41.047,0,0,1-10.508-8.215l1.214,6.142c-17.061-.31-28.334,11.77-28.449,11.9l.995.935c.11-.12,10.886-11.65,27.217-11.461l-2.9,5.421A40.679,40.679,0,0,1,358.952,67.035Z" transform="translate(-103.272 -18.381)" fill="#dcc43e"/>
  <g id="Group_30" data-name="Group 30" transform="translate(223.142 11.678)">
    <g id="Group_26" data-name="Group 26" transform="translate(24.044 264.203)">
      <path id="Path_54" data-name="Path 54" d="M387.117,423.916l-5.647-.048-2.5-22.585,8.334.071Z" transform="translate(-369.03 -401.283)" fill="#a0616a"/>
      <path id="Path_55" data-name="Path 55" d="M384.957,444.287l-1.051-14.212-1.475-.1-6.015-.417-1.935-.131-.037,4.09-9.019,6.2a2.573,2.573,0,0,0,.7,4.569,2.355,2.355,0,0,0,.7.106l11.225.093.1-.2,1.868-3.835.682,3.835.037.224,4.239.037-.018-.261Z" transform="translate(-364.32 -410.078)" fill="#2f2e41"/>
    </g>
    <g id="Group_27" data-name="Group 27" transform="translate(107.862 261.404)">
      <path id="Path_56" data-name="Path 56" d="M503.924,419.072l-5.472,1.415L490.34,399.3l8.075-2.089Z" transform="translate(-488.655 -397.211)" fill="#a0616a"/>
      <path id="Path_57" data-name="Path 57" d="M508.51,438.206l-4.6-13.469-1.451.285-5.92,1.154-1.9.375,1,3.964-7.156,8.33a2.6,2.6,0,0,0-.542,2.309,2.54,2.54,0,0,0,2.371,1.928,2.356,2.356,0,0,0,.7-.079l10.875-2.816.045-.218.839-4.191,1.626,3.531.092.207,4.108-1.061Z" transform="translate(-487.856 -405.813)" fill="#2f2e41"/>
    </g>
    <path id="Path_58" data-name="Path 58" d="M389.284,159.018l33.333,5.883v5.262s2.29-.317,2.29,1.23v2.716l1.853,1.878s17.994,21.7,14.94,47.487l2.544,22.173,2.545,4.641-1.018,5.157s3.562,3.61,3.562,4.125-1.018,5.157-1.018,5.157,5.089,2.063,4.58,2.578.509,3.61.509,3.61,12.722,37.643,9.16,63.426l-8.651,2.578L424.4,267.306l-17.3-50.019-14.588,35.065v6.781l.509,1.47v1.031l-1.527,3.61,1.018,2.063-2.036,6.188v7.735s.339,41.252-6.786,54.659h-8.651l-8.651-79.411,1.527-8.25.509-4.125,2.544-1.031-2.544-3.094,8.651-54.659,12.214-26.3Z" transform="translate(-340.939 -61.372)" fill="#2f2e41"/>
    <path id="Path_59" data-name="Path 59" d="M403.251,68.211h18.028l2.308,7.752,7.148,2.868a12.491,12.491,0,0,1,7.759,12.37l-.109,1.8,1.855,11s-2.2,4.208-3.3,5.11-5.381,19.709-5.381,19.709l8.178,28.909-11.021-6.464-37.152-14.161,0-7.5,2.074-5.46,1.288-1.3-5.577-10.35-4.79-30.332,14.455-5.086,4.235-8.867Z" transform="translate(-346.783 -32.994)" fill="#dcc43e"/>
    <g id="Group_28" data-name="Group 28" transform="translate(0 35.077)">
      <path id="Path_60" data-name="Path 60" d="M332.7,97.806l3.13-23.65.043.009a4.661,4.661,0,0,1,.148-3.444,4.54,4.54,0,0,1,6.043-2.3,4.65,4.65,0,0,1,2.267,6.123,4.571,4.571,0,0,1-2.282,2.3l-2.27,17.309,29.9-11.535s11.662,6.375,7.267,8.046c-2.86,1.087-33.99,12.977-39.681,12.7a4.89,4.89,0,0,1-4.564-5.557Z" transform="translate(-330.095 -68.008)" fill="#a0616a"/>
      <path id="Path_61" data-name="Path 61" d="M375.569,90.963l3.915,5.7c-6.429,4.686-37.015,15.911-37.132,14.506s-1.639-.129-1.795.413-1.895-.269-1.885.368-1.45.244-2.18.346c0,0-5.665-1.952-6.519-5.2a15.224,15.224,0,0,1,.183-6.935l-1.274-3.432,14.147-2.673-2.62,4.324,28.67-11.343Z" transform="translate(-328.882 -73.954)" fill="#dcc43e"/>
    </g>
    <g id="Group_29" data-name="Group 29" transform="translate(77.953 46.003)">
      <path id="Path_62" data-name="Path 62" d="M477.135,123.35l12.669-20.1-.039-.022a4.648,4.648,0,0,0-.219-8.093,4.55,4.55,0,0,0-6.481,2.856,4.655,4.655,0,0,0,.278,3.247l-9.288,14.695L461.615,93.144a12.124,12.124,0,0,0-11.547-6.415c-1.822.152-2.983.749-2.156,2.247,1.491,2.7,17.68,32.124,22.2,35.632a4.8,4.8,0,0,0,7.022-1.258Z" transform="translate(-445.017 -84.771)" fill="#a0616a"/>
      <path id="Path_63" data-name="Path 63" d="M450.389,83.9l-6.615,1.789c1.923,7.779,18.121,36.341,19.1,35.346s1.333.973,1.107,1.488,1.617,1.033,1.2,1.513.951,1.134,1.444,1.689c0,0,5.567,2.214,8.288.292A15,15,0,0,0,479.2,120.6l3.157-1.786-9.1-11.288-.754,5.013L460.719,90.517a12.325,12.325,0,0,0-8.827-6.366l-1.5-.251Z" transform="translate(-443.773 -83.9)" fill="#dcc43e"/>
    </g>
    <ellipse id="Ellipse_25" data-name="Ellipse 25" cx="14.158" cy="14.346" rx="14.158" ry="14.346" transform="translate(47.142 3.064)" fill="#a0616a"/>
    <path id="Path_64" data-name="Path 64" d="M391.638,28.175c-.15-7.02,2.862-8.8,7.265-8.916,9.09-3.494,10.921-2.127,13.581-1.314l1.023-.1a15.544,15.544,0,0,1,8.756,1.71,16.114,16.114,0,0,1,8.323,15.151c-.208,4.314-1.924,9,.122,12.769,1.712,3.145,3.518,6.25-.006,6.591l-9.227.893a23.163,23.163,0,0,1-1.72-3.6,11.627,11.627,0,0,0-.609,3.829,22.527,22.527,0,0,1-10.612,1.027,4.211,4.211,0,0,1-.742-2.824,19.535,19.535,0,0,0-.85,2.978c-2.145-1.79-4.114-1.573-5.915.572-3.492-3.708-2.934-11.186,1.879-12.5,4.072-1.115-.786-12.885-4.943-13.607-.027,0-1.635,4.132-1.665,4.047-.452-1.266-.106-1.89-.66-3.284a11.019,11.019,0,0,0-.59,3.187,17.661,17.661,0,0,1-2.912-1.333,5.69,5.69,0,0,1-.5-5.269Z" transform="translate(-348.918 -16.987)" fill="#2f2e41"/>
  </g>
  <path id="Path_65" data-name="Path 65" d="M526.664,409.846a1.562,1.562,0,0,0,1.116-2.7l-.106-.425.042-.1a4.114,4.114,0,0,1,7.627.029c1.247,3.044,2.836,6.094,3.227,9.313a12.556,12.556,0,0,1-.215,4.263,50.251,50.251,0,0,0,4.461-20.639,48.619,48.619,0,0,0-.294-5.351q-.243-2.185-.675-4.338a50.568,50.568,0,0,0-9.838-21.305,13.3,13.3,0,0,1-5.491-5.773,10.3,10.3,0,0,1-.916-2.789c.267.036,1.008-4.09.806-4.343.373-.573,1.039-.858,1.446-1.417,2.023-2.78,4.811-2.294,6.267,1.483,3.109,1.59,3.139,4.227,1.231,6.763-1.214,1.613-1.38,3.8-2.445,5.524.11.142.224.28.333.422a50.689,50.689,0,0,1,5.212,8.366,21.289,21.289,0,0,1,1.239-9.769c1.186-2.9,3.409-5.341,5.367-7.848a4.246,4.246,0,0,1,7.588,2.12q.006.055.012.111-.436.249-.854.529a2.124,2.124,0,0,0,.842,3.851l.043.007a21.32,21.32,0,0,1-.548,3.148c2.512,9.842-2.911,13.427-10.653,13.588-.171.089-.337.178-.508.262a50.835,50.835,0,0,1,1.876,6.861,51.419,51.419,0,0,1,.868,6.221,49.631,49.631,0,0,1-.035,7.908l.013-.093a12.977,12.977,0,0,1,4.36-7.473c3.356-2.793,8.1-3.822,11.716-6.067a2.4,2.4,0,0,1,3.671,2.363l-.015.1a13.941,13.941,0,0,0-1.573.768q-.436.249-.854.529a2.124,2.124,0,0,0,.842,3.851l.043.007.088.013a21.111,21.111,0,0,1-3.826,6.07c-1.57,8.592-8.316,9.407-15.531,6.9h0a52.1,52.1,0,0,1-3.422,10.124H526.971c-.044-.138-.083-.28-.123-.417a13.711,13.711,0,0,0,3.383-.2c-.907-1.128-1.814-2.265-2.721-3.393a.778.778,0,0,1-.057-.067c-.46-.577-.925-1.15-1.385-1.727h0a20.882,20.882,0,0,1,.6-5.252h0Z" transform="translate(-168.988 -110.154)" fill="#f2f2f2"/>
  <path id="Path_66" data-name="Path 66" d="M325.616,451.687a.81.81,0,0,0,.807.818H498.278a.818.818,0,0,0,0-1.636H326.423A.81.81,0,0,0,325.616,451.687Z" transform="translate(-104.689 -140.897)" fill="#ccc"/>
  <ellipse id="Ellipse_26" data-name="Ellipse 26" cx="8.142" cy="8.25" rx="8.142" ry="8.25" transform="translate(126.119 88.977)" fill="#ccc"/>
  <ellipse id="Ellipse_27" data-name="Ellipse 27" cx="8.142" cy="8.25" rx="8.142" ry="8.25" transform="translate(197.36 90.352)" fill="#ccc"/>
  <ellipse id="Ellipse_28" data-name="Ellipse 28" cx="8.142" cy="8.25" rx="8.142" ry="8.25" transform="translate(335.772 93.79)" fill="#ccc"/>
  <ellipse id="Ellipse_29" data-name="Ellipse 29" cx="8.142" cy="8.25" rx="8.142" ry="8.25" transform="translate(26.381 88.977)" fill="#ccc"/>
  <path id="Path_67" data-name="Path 67" d="M52.425,141.478c-.327,0-.654,0-.98-.009.011-.063.023-.127.032-.189a19.916,19.916,0,0,0,.212-3.059,9.512,9.512,0,0,0-.37-2.96,1.035,1.035,0,0,0-1.5-.616,17.613,17.613,0,0,0-2.913,2.1,1.068,1.068,0,0,0-.365,1.411,1.019,1.019,0,0,0,1.392.37c.609-.441,1.124-.909,1.673-1.33.019.254.032.509.038.763a19.518,19.518,0,0,1-.119,2.63c0,.042-.03.221-.027.205-.008.052-.015.1-.024.155a5.077,5.077,0,0,1-.106.5l0,.015c-.48.007-.96.022-1.439.059a1.035,1.035,0,0,0-.271,2.026,3.55,3.55,0,0,0,2.6-.028c.721,0,1.442.021,2.162.022a1.031,1.031,0,0,0,0-2.062Z" transform="translate(-14.921 -42.039)" fill="#fff"/>
  <g id="Group_31" data-name="Group 31" transform="translate(131.225 91.764)">
    <path id="Path_68" data-name="Path 68" d="M199.233,136.7l-.005,0a.418.418,0,0,0,.032.028Z" transform="translate(-195.279 -134.482)" fill="#fff"/>
    <path id="Path_69" data-name="Path 69" d="M199.606,141.345c-.862,0-1.722.068-2.584.082-.119,0-.228,0-.341,0,.424-.342.851-.681,1.259-1.042,1.076-.953,2.236-2.274,2.072-3.835s-1.577-3.23-3.249-3.065a3.424,3.424,0,0,0-2.823,2.472,2.35,2.35,0,0,0,.318,2.1,2.56,2.56,0,0,0,2.234.865c-.064.056-.124.117-.188.173-.514.441-1.053.851-1.573,1.286a4.923,4.923,0,0,0-1.19,1.29,1.048,1.048,0,0,0,.608,1.515c1.774.515,3.644.224,5.456.218a1.031,1.031,0,0,0,0-2.062Zm-2.063-3.485v0C197.567,137.823,197.565,137.829,197.543,137.859Zm-.377-2.284c-.051-.027-.1-.056,0,0Zm.062.024s-.023,0-.046-.016A.265.265,0,0,1,197.228,135.6Zm-1.377,1.169v.007l0-.009Zm-.014-.009.006.018-.04-.04C195.819,136.739,195.826,136.751,195.837,136.76Zm.009.028v0C195.757,136.745,195.8,136.759,195.846,136.788Zm0,.015v0Zm.257.063-.025,0c-.046-.014-.1-.024-.143-.034a.1.1,0,0,1,.037.03.151.151,0,0,0-.053-.033h0a.28.28,0,0,1-.031-.009c.02.015.033.029.029.039s-.021-.02-.043-.043c.018.053.011.1,0,.01,0,0,0-.007,0-.011l0,0V136.8h0l0,0,0-.022a.122.122,0,0,1,.008.022c0-.044,0-.1-.005-.139s.012-.057.019-.086.056-.162.07-.206.057-.109.088-.162c.022-.036.094-.138.122-.181.045-.051.106-.121.129-.144.041-.042.085-.081.127-.121s.146-.161.032-.03-.015.012.038-.02.1-.061.147-.089l.019-.008c-.031.006-.037,0,.049-.025l.017,0a.128.128,0,0,0,.047-.028c-.005.009-.019.016-.03.023l.1-.029c-.011,0-.023,0-.032-.005a.212.212,0,0,0,.037,0l.02-.006c.134-.038.094-.006.033.008h.127c-.068-.012-.131-.049,0-.01l.03.009a.2.2,0,0,0,.043,0,.079.079,0,0,1-.039.005l.114.033.006,0,.149.088.024.017c-.011-.01-.02-.017-.034-.032.012.013.026.024.039.036.046.032.052.043.027.025.036.031.071.062.1.1.059.059.111.122.168.183l.019.019.011.019c.082.129.151.264.228.394,0,.008.006.017.009.025.017.062.033.125.052.186,0,.01,0,.014.008.021,0,.064.007.128.005.193l0,.049c0,.034-.011.076-.015.094-.014.059-.03.118-.048.176-.007.023-.015.045-.023.068-.118.208-.234.409-.364.609a1.029,1.029,0,0,0-1.013-.988C196.388,136.871,196.249,136.869,196.109,136.865Z" transform="translate(-193.408 -133.475)" fill="#fff"/>
    <path id="Path_70" data-name="Path 70" d="M197.036,138.309v0h0l0,0h0l.006.006v0h0l.015,0-.017-.011v0l.052.023.016,0a.218.218,0,0,0-.068-.028Z" transform="translate(-194.572 -134.985)" fill="#fff"/>
    <path id="Path_71" data-name="Path 71" d="M198.529,136.491l-.053,0-.006,0A.144.144,0,0,0,198.529,136.491Z" transform="translate(-195.036 -134.417)" fill="#fff"/>
    <path id="Path_72" data-name="Path 72" d="M198.779,136.492h-.035A.149.149,0,0,0,198.779,136.492Z" transform="translate(-195.123 -134.417)" fill="#fff"/>
    <path id="Path_73" data-name="Path 73" d="M197.032,138.311h0l-.005,0Z" transform="translate(-194.572 -134.986)" fill="#fff"/>
    <path id="Path_74" data-name="Path 74" d="M197.03,138.31Z" transform="translate(-194.572 -134.986)" fill="#fff"/>
    <path id="Path_75" data-name="Path 75" d="M198.28,136.534l-.016,0-.066.03A.247.247,0,0,0,198.28,136.534Z" transform="translate(-194.948 -134.431)" fill="#fff"/>
  </g>
  <path id="Path_76" data-name="Path 76" d="M304.894,141.206c-.037-.046-.084-.082-.123-.127a1.707,1.707,0,0,0,.349-.492,2.978,2.978,0,0,0-.82-3.124,4.742,4.742,0,0,0-5.769-.827,1.054,1.054,0,0,0-.365,1.411,1.027,1.027,0,0,0,1.392.37c.075-.047.152-.089.229-.133l.046-.028.034-.011a4.53,4.53,0,0,1,.515-.144l.047-.012h.04c.091,0,.181-.013.272-.014.163,0,.323.01.485.023l.11.021q.135.027.268.063a3.939,3.939,0,0,1,.424.143l.138.066c.079.042.157.086.233.133s.145.1.22.148c-.192-.119-.023-.016.023.026a3.508,3.508,0,0,1,.309.332c.012.016.026.035.04.055q.074.11.14.225c.008.015.048.092.074.141s.042.11.047.126.012.049.017.07a.7.7,0,0,1-.073.026c-.054.014-.11.024-.165.034-.025,0-.072.009-.12.013-.157.011-.314.013-.471.013a1.023,1.023,0,0,0-1,.894,1.044,1.044,0,0,0,.729,1.132l.1.037.119.054c.13.064.259.133.383.209.075.046.147.1.221.144l.03.02a2.822,2.822,0,0,1,.281.259c.05.054.146.229.041.038a1.486,1.486,0,0,0,.081.129c.007.009.01.012.015.019v0s.007.023.013.044a1.007,1.007,0,0,1-.053.092c.073-.128.006-.008-.049.05a1.365,1.365,0,0,1-.327.264c-.067.041-.137.08-.208.115-.019.005-.1.035-.127.044-.063.019-.126.033-.19.046-.024,0-.078.01-.117.011-.08,0-.159,0-.24,0h-.048l-.016,0c-.159-.04-.318-.071-.474-.122-.079-.026-.157-.056-.235-.084l-.058-.021c.005,0,.005,0-.026-.014-.327-.152-.642-.326-.956-.5a1.024,1.024,0,0,0-1.392.37,1.057,1.057,0,0,0,.365,1.411,6.616,6.616,0,0,0,2.839,1.033,3.46,3.46,0,0,0,2.885-1.37A2.227,2.227,0,0,0,304.894,141.206ZM303.3,139.68a.321.321,0,0,0,.022-.038C303.337,139.622,303.341,139.619,303.3,139.68Zm.035-.059.007-.012c.008,0,.029-.006.085-.042C303.4,139.588,303.364,139.6,303.334,139.622Zm.134,3.153c0,.017.007.031,0,.033Z" transform="translate(-95.819 -42.503)" fill="#fff"/>
  <path id="Path_77" data-name="Path 77" d="M509.064,145.787a1.091,1.091,0,0,0-.927-.76c-.053-.5-.091-1-.095-1.5a1.018,1.018,0,1,0-2.035,0,16.075,16.075,0,0,0,.106,1.641c-.388-.024-.775-.052-1.163-.038-.465.017-.927.093-1.392.125-.066,0-.132,0-.2,0,.065-.2.129-.39.206-.581.013-.029.031-.069.046-.1q.044-.094.091-.185a4.365,4.365,0,0,1,.22-.384c.027-.042.185-.234.021-.043.049-.057.095-.115.146-.169.037-.039.077-.075.117-.111.015-.012.035-.025.061-.042a1.055,1.055,0,0,0,.365-1.411,1.026,1.026,0,0,0-1.393-.37c-1.319.84-1.766,2.505-2.176,3.931a1.056,1.056,0,0,0,.468,1.165c1.027.617,2.228.3,3.342.243a14.91,14.91,0,0,1,1.521.042,21.051,21.051,0,0,1,.284,3.013,1.018,1.018,0,1,0,2.036,0,22.266,22.266,0,0,0-.31-3.219A1.043,1.043,0,0,0,509.064,145.787Zm-4.861-2.1c-.034.03-.035.027,0,0Z" transform="translate(-161.087 -44.286)" fill="#fff"/>
</svg>
