<svg xmlns="http://www.w3.org/2000/svg" width="409" height="293" viewBox="0 0 409 293">
  <g id="Group_66" data-name="Group 66" transform="translate(-756 -1489)">
    <rect id="Rectangle_129" data-name="Rectangle 129" width="409" height="293" transform="translate(756 1489)" fill="#fff"/>
    <g id="Group_62" data-name="Group 62" transform="translate(775 1501)">
      <path id="Path_203" data-name="Path 203" d="M644.066,120.127c3.191,6.79-3.57,8.713-11.315,12.352s-13.54,7.616-16.731.827-5.779-20.266,5.177-25.415C632.53,102.565,640.875,113.337,644.066,120.127Z" transform="translate(-429.71 -106.46)" fill="#2f2e41"/>
      <circle id="Ellipse_75" data-name="Ellipse 75" cx="10.426" cy="10.426" r="10.426" transform="translate(188.129 6.167)" fill="#ffb8b8"/>
      <path id="Path_204" data-name="Path 204" d="M720.14,235.93c-.361-.471-.722-.934-1.087-1.384q-.707-.879-1.422-1.7c-5.4-6.236-11.151-10.162-17.48-10.583h-.008l-.094-.008-12.612,12.293-4.287,4.177.094.229,2.313,5.76h40.535a99.687,99.687,0,0,0-5.951-8.783Z" transform="translate(-469.934 -173.1)" fill="#2f2e41"/>
      <path id="Path_205" data-name="Path 205" d="M620.478,132.884h0l3.732-1.754-.52-5.384,2.5,4.456,1.784-.838-.3-3.141,1.456,2.6,13.255-6.228h0a11.037,11.037,0,0,0-14.683-5.3l-1.921.9A11.037,11.037,0,0,0,620.478,132.884Z" transform="translate(-433.261 -112.093)" fill="#2f2e41"/>
      <path id="Path_206" data-name="Path 206" d="M520.752,407.463h-217.7a7.012,7.012,0,0,1-7-7V269.65a5.137,5.137,0,0,1,5.131-5.131H522.536a5.226,5.226,0,0,1,5.22,5.22v130.72a7.012,7.012,0,0,1-7,7Z" transform="translate(-247.156 -197.424)" fill="#f2f2f2"/>
      <path id="Path_207" data-name="Path 207" d="M319.344,415.821H523.456a6.792,6.792,0,0,0,6.792-6.792V298a6.792,6.792,0,0,0-6.792-6.792H319.344A6.792,6.792,0,0,0,312.552,298V409.03A6.792,6.792,0,0,0,319.344,415.821Z" transform="translate(-256.651 -212.787)" fill="#fff"/>
      <path id="Path_208" data-name="Path 208" d="M527.525,261.3H295.82v-3.566a7.035,7.035,0,0,1,7.03-7.025H520.5a7.035,7.035,0,0,1,7.03,7.025Z" transform="translate(-247.022 -189.479)" fill="#dcc43e"/>
      <circle id="Ellipse_76" data-name="Ellipse 76" cx="1.818" cy="1.818" r="1.818" transform="translate(59.755 64.722)" fill="#fff"/>
      <circle id="Ellipse_77" data-name="Ellipse 77" cx="1.818" cy="1.818" r="1.818" transform="translate(66.657 64.722)" fill="#fff"/>
      <circle id="Ellipse_78" data-name="Ellipse 78" cx="1.818" cy="1.818" r="1.818" transform="translate(73.558 64.722)" fill="#fff"/>
      <path id="Path_209" data-name="Path 209" d="M553.76,492.358H535.507a4.037,4.037,0,0,1-4.033-4.033V470.072a4.037,4.037,0,0,1,4.033-4.033H553.76a4.037,4.037,0,0,1,4.033,4.033v18.253A4.037,4.037,0,0,1,553.76,492.358Zm-18.253-25.47a3.187,3.187,0,0,0-3.184,3.184v18.253a3.187,3.187,0,0,0,3.184,3.184H553.76a3.187,3.187,0,0,0,3.184-3.184V470.072a3.187,3.187,0,0,0-3.184-3.184Z" transform="translate(-382.643 -313.401)" fill="#ccc"/>
      <path id="Path_210" data-name="Path 210" d="M558.785,494.17H547.748a1.275,1.275,0,0,1-1.273-1.273V479.313a1.275,1.275,0,0,1,1.273-1.273h8a1.277,1.277,0,0,1,.8.281l3.039,2.443a1.267,1.267,0,0,1,.476.993V492.9A1.275,1.275,0,0,1,558.785,494.17Zm-11.037-15.282a.425.425,0,0,0-.424.424V492.9a.425.425,0,0,0,.424.424h11.037a.425.425,0,0,0,.424-.424V481.755a.422.422,0,0,0-.159-.331l-3.04-2.443a.425.425,0,0,0-.266-.094Z" transform="translate(-391.276 -320.307)" fill="#ccc"/>
      <path id="Path_211" data-name="Path 211" d="M560.691,490.889H553.9a.424.424,0,1,1,0-.849h6.792a.424.424,0,0,1,0,.849Z" transform="translate(-395.304 -327.213)" fill="#ccc"/>
      <path id="Path_212" data-name="Path 212" d="M560.691,496.888H553.9a.424.424,0,1,1,0-.849h6.792a.424.424,0,0,1,0,.849Z" transform="translate(-395.304 -330.666)" fill="#ccc"/>
      <path id="Path_213" data-name="Path 213" d="M560.691,502.888H553.9a.424.424,0,1,1,0-.849h6.792a.424.424,0,0,1,0,.849Z" transform="translate(-395.304 -334.119)" fill="#ccc"/>
      <path id="Path_214" data-name="Path 214" d="M655.76,492.358H637.507a4.037,4.037,0,0,1-4.033-4.033V470.072a4.037,4.037,0,0,1,4.033-4.033H655.76a4.037,4.037,0,0,1,4.033,4.033v18.253A4.037,4.037,0,0,1,655.76,492.358Zm-18.253-25.47a3.187,3.187,0,0,0-3.184,3.184v18.253a3.187,3.187,0,0,0,3.184,3.184H655.76a3.187,3.187,0,0,0,3.184-3.184V470.072a3.187,3.187,0,0,0-3.184-3.184Z" transform="translate(-441.345 -313.401)" fill="#ccc"/>
      <path id="Path_215" data-name="Path 215" d="M660.634,495.378H648.748a1.275,1.275,0,0,1-1.273-1.273v-6.792a1.275,1.275,0,0,1,1.273-1.273h11.886a1.275,1.275,0,0,1,1.273,1.273V494.1A1.275,1.275,0,0,1,660.634,495.378Zm-11.886-8.49a.425.425,0,0,0-.424.424V494.1a.425.425,0,0,0,.424.424h11.886a.425.425,0,0,0,.425-.424v-6.792a.425.425,0,0,0-.424-.424Z" transform="translate(-449.402 -324.911)" fill="#ccc"/>
      <path id="Path_216" data-name="Path 216" d="M654.691,492.98a1.276,1.276,0,0,1-.675-.192l-6.342-3.964a.425.425,0,1,1,.45-.72l6.342,3.964a.427.427,0,0,0,.45,0l6.342-3.964a.425.425,0,0,1,.45.72l-6.342,3.964A1.276,1.276,0,0,1,654.691,492.98Z" transform="translate(-449.402 -326.062)" fill="#ccc"/>
      <path id="Path_217" data-name="Path 217" d="M451.76,492.358H433.507a4.037,4.037,0,0,1-4.033-4.033V470.072a4.037,4.037,0,0,1,4.033-4.033H451.76a4.037,4.037,0,0,1,4.033,4.033v18.253A4.037,4.037,0,0,1,451.76,492.358Zm-18.253-25.47a3.187,3.187,0,0,0-3.184,3.184v18.253a3.187,3.187,0,0,0,3.184,3.184H451.76a3.187,3.187,0,0,0,3.184-3.184V470.072a3.187,3.187,0,0,0-3.184-3.184Z" transform="translate(-323.941 -313.401)" fill="#ccc"/>
      <path id="Path_218" data-name="Path 218" d="M456.634,495.378H444.748a1.275,1.275,0,0,1-1.273-1.273v-6.792a1.275,1.275,0,0,1,1.273-1.273h11.886a1.275,1.275,0,0,1,1.273,1.273V494.1A1.275,1.275,0,0,1,456.634,495.378Zm-11.886-8.49a.425.425,0,0,0-.424.424V494.1a.425.425,0,0,0,.424.424h11.886a.425.425,0,0,0,.424-.424v-6.792a.425.425,0,0,0-.424-.424Z" transform="translate(-331.998 -324.911)" fill="#ccc"/>
      <path id="Path_219" data-name="Path 219" d="M457.3,499.695h-8.542a.849.849,0,0,1-.735-1.273l2.573-4.457a.849.849,0,0,1,1.471,0l1.662,2.879.963-1.668a.849.849,0,0,1,1.471,0l1.874,3.246a.849.849,0,0,1-.735,1.273Zm0-.849h0L455.43,495.6l-1.33,2.3a.424.424,0,0,1-.368.212h0a.424.424,0,0,1-.368-.212l-2.029-3.515-2.573,4.457Z" transform="translate(-334.552 -329.228)" fill="#ccc"/>
      <circle id="Ellipse_79" data-name="Ellipse 79" cx="0.849" cy="0.849" r="0.849" transform="translate(122.513 162.826)" fill="#ccc"/>
      <path id="Path_220" data-name="Path 220" d="M758.413,620.935h-5.2l-2.476-20.073h7.681Z" transform="translate(-432.053 -345.8)" fill="#ffb8b8"/>
      <path id="Path_221" data-name="Path 221" d="M930.065,757.351h-16.78v-.212a6.531,6.531,0,0,1,6.531-6.531h10.249Z" transform="translate(-602.378 -477.172)" fill="#2f2e41"/>
      <path id="Path_222" data-name="Path 222" d="M808.413,620.935h-5.2l-2.476-20.073h7.681Z" transform="translate(-460.828 -345.8)" fill="#ffb8b8"/>
      <path id="Path_223" data-name="Path 223" d="M980.065,757.351h-16.78v-.212a6.531,6.531,0,0,1,6.531-6.531h10.249Z" transform="translate(-631.154 -477.172)" fill="#2f2e41"/>
      <path id="Path_224" data-name="Path 224" d="M957.3,629.508l-4.82-1.466a1.907,1.907,0,0,1-1.344-1.627l-4.494-42.588a.2.2,0,0,0-.2-.19.2.2,0,0,0-.217.174l-7.527,41.26a1.91,1.91,0,0,1-2.264,1.528l-6.16-1.269a1.917,1.917,0,0,1-1.52-2l4.578-67.627,31.046-3.35L959.766,627.8a1.908,1.908,0,0,1-2.463,1.711Z" transform="translate(-611.279 -363.075)" fill="#2f2e41"/>
      <circle id="Ellipse_80" data-name="Ellipse 80" cx="10.426" cy="10.426" r="10.426" transform="translate(335.569 112.883)" fill="#ffb8b8"/>
      <path id="Path_225" data-name="Path 225" d="M939.433,485.346l6.732-42.386a16.07,16.07,0,0,1,20.378-12.9h0a16.022,16.022,0,0,1,11.292,18.364l-7.043,37.853Z" transform="translate(-617.426 -292.321)" fill="#dcc43e"/>
      <path id="Path_226" data-name="Path 226" d="M993.669,551.956a4.269,4.269,0,0,0,.742-6.5l6.96-13.478-7.838.836-5.408,12.671a4.292,4.292,0,0,0,5.544,6.474Z" transform="translate(-644.796 -351.347)" fill="#ffb8b8"/>
      <path id="Path_227" data-name="Path 227" d="M1000.4,493.105a1.913,1.913,0,0,1-1.03-.489l-2.663-2.461a1.916,1.916,0,0,1-.463-2.145l5.322-12.615-.755-24.926A6.154,6.154,0,1,1,1013,452.133l1.291,15.669a19.685,19.685,0,0,1-3.794,13.328l-8.3,11.22a1.912,1.912,0,0,1-1.356.766A1.889,1.889,0,0,1,1000.4,493.105Z" transform="translate(-650.035 -301.377)" fill="#dcc43e"/>
      <path id="Path_228" data-name="Path 228" d="M854.4,376.65a4.269,4.269,0,0,0,5.7,3.219l9.7,11.664,2.286-7.544-9.56-9.92a4.292,4.292,0,0,0-8.123,2.581Z" transform="translate(-568.445 -259.021)" fill="#ffb8b8"/>
      <path id="Path_229" data-name="Path 229" d="M872.032,391.676a1.912,1.912,0,0,1,.851-.758l3.3-1.493a1.917,1.917,0,0,1,2.156.41l9.542,9.819,23.248,9.023a6.154,6.154,0,1,1-6.286,10.581l-14.932-4.921a19.685,19.685,0,0,1-10.794-8.69l-7.1-12.018a1.913,1.913,0,0,1-.176-1.548,1.884,1.884,0,0,1,.183-.407Z" transform="translate(-578.48 -269.212)" fill="#dcc43e"/>
      <path id="Path_230" data-name="Path 230" d="M823.824,375.652l-.424,13.584-7.82,13.588,6.529-15.143Z" transform="translate(-469.373 -216.191)" opacity="0.1"/>
      <path id="Path_231" data-name="Path 231" d="M976.432,381.393a2.726,2.726,0,0,1-2.984-2,4.145,4.145,0,0,0-2.951-3.088c-1.913-.437-4.25.463-5.651-.986a2.818,2.818,0,0,1-.669-2.48,5.7,5.7,0,0,1,2.362-3.323,14.459,14.459,0,0,1,8.008-2.993,28.727,28.727,0,0,1,4.508.224,19.956,19.956,0,0,1,4.612.843,10.857,10.857,0,0,1,6.793,7.93,12.534,12.534,0,0,1-2.571,10.243,13.457,13.457,0,0,1-5.162,3.93,2.014,2.014,0,0,1-1.531.078c-1.255-.5-1.05-2.054-.478-3.091.612-1.11,1.555-2.185,1.062-3.535a2.675,2.675,0,0,0-1.327-1.429,6.843,6.843,0,0,0-3.985-.331Z" transform="translate(-631.631 -256.125)" fill="#2f2e41"/>
      <path id="Path_232" data-name="Path 232" d="M661.847,359.033H532.8a7.012,7.012,0,0,1-7-7V324.437a7.012,7.012,0,0,1,7-7H661.847a7.012,7.012,0,0,1,7,7v27.592a7.012,7.012,0,0,1-7,7Z" transform="translate(-379.376 -227.877)" fill="#fff"/>
      <path id="Path_233" data-name="Path 233" d="M661.559,358.958H532.514a7.224,7.224,0,0,1-7.216-7.216V324.15a7.224,7.224,0,0,1,7.216-7.216H661.559a7.224,7.224,0,0,1,7.216,7.216v27.592a7.225,7.225,0,0,1-7.216,7.216ZM532.514,317.782a6.375,6.375,0,0,0-6.367,6.367v27.592a6.375,6.375,0,0,0,6.367,6.367H661.559a6.375,6.375,0,0,0,6.367-6.367V324.15a6.375,6.375,0,0,0-6.367-6.367Z" transform="translate(-379.088 -227.589)" fill="#3f3d56"/>
      <path id="Path_234" data-name="Path 234" d="M667.435,360.874H569.8a7.012,7.012,0,0,1-7-7V339.437a7.012,7.012,0,0,1,7-7h97.633a7.012,7.012,0,0,1,7,7V353.87a7.012,7.012,0,0,1-7,7Z" transform="translate(-400.67 -236.51)" fill="#f2f2f2"/>
      <circle id="Ellipse_81" data-name="Ellipse 81" cx="8.376" cy="8.376" r="8.376" transform="translate(181.766 99.833)" fill="#ff6584"/>
      <path id="Path_235" data-name="Path 235" d="M678.883,367.179l-11.823-9.916-11.619-9.745a1.7,1.7,0,0,0-2.187,0l-11.582,9.789-2.829,2.391-4.265-3.577-12.963-10.872a1.7,1.7,0,0,0-2.187,0L606.507,356.18l-13.124,11.093a.424.424,0,0,0,.275.749l26.907-.052,8.517-.016-.083.07,25.388-.049,24.224-.047a.424.424,0,0,0,.272-.75Z" transform="translate(-418.186 -243.66)" fill="#3f3d56"/>
      <path id="Path_236" data-name="Path 236" d="M945.063,766.782h-81.5a.424.424,0,0,1,0-.849h81.5a.424.424,0,1,1,0,.849Z" transform="translate(-573.517 -485.992)" fill="#ccc"/>
      <path id="Path_237" data-name="Path 237" d="M727,194.536a4.763,4.763,0,0,0-3.078-2.165,4.376,4.376,0,0,0-.7-.089l-32.342-28.916a3.827,3.827,0,0,0-2.39-1.142,3.255,3.255,0,0,0-.539-.017,3.844,3.844,0,0,0-2.53,6.571L697.8,179.573,718.131,197.3a5.057,5.057,0,0,0,.149.989,4.782,4.782,0,0,0,4.1,3.553,4.709,4.709,0,0,0,2.568-.424,4.843,4.843,0,0,0,1.647-1.261c.047-.055.089-.106.132-.166A4.794,4.794,0,0,0,727,194.536Z" transform="translate(-470.582 -138.54)" fill="#ffb8b8"/>
      <path id="Path_238" data-name="Path 238" d="M642.745,240.452l-.3-12.251-.255-10.167-.174-7.114-.344-13.868A3.84,3.84,0,0,0,635,194.823a2.946,2.946,0,0,0-.318.408,3.793,3.793,0,0,0-.662,2.568l.756,20.236.378,10.167.484,12.968a5.115,5.115,0,0,0-.378.6,4.8,4.8,0,1,0,7.484-1.316Z" transform="translate(-441.648 -156.588)" fill="#ffb8b8"/>
      <path id="Path_239" data-name="Path 239" d="M672.4,187.334l-3-8.129-4.856-13.168a6.794,6.794,0,0,0-4.224-4.109c-.076-.025-.157-.051-.233-.072a6.785,6.785,0,0,0-5.62.773L638.11,173a6.831,6.831,0,0,0-2.237,9.233A117.3,117.3,0,0,0,642.55,192.5c1.906,2.594,5.455,2.87,6.07,7.114h12.06l12.208-10.96Z" transform="translate(-442.183 -138.173)" fill="#ccc"/>
      <circle id="Ellipse_82" data-name="Ellipse 82" cx="9.836" cy="9.836" r="9.836" transform="translate(33.107 128.838)" fill="#a0616a"/>
      <path id="Path_240" data-name="Path 240" d="M305.888,415.9q.145.116.282.245a4.406,4.406,0,0,1-.177,6.573,4.133,4.133,0,0,1-.346.26l.666,22.475a3.422,3.422,0,0,1-2.354,3.339l-.041.009-18.248,1.943a3.777,3.777,0,1,1-.731-7.519l13.008-1.146,2.25-19.463a4.2,4.2,0,0,1-.412-.42,4.406,4.406,0,0,1,6.1-6.3Z" transform="translate(-238.797 -283.996)" fill="#a0616a"/>
      <path id="Path_241" data-name="Path 241" d="M139.327,623.5h4.91l2.336-18.938h-7.246Z" transform="translate(-80.183 -347.93)" fill="#a0616a"/>
      <path id="Path_242" data-name="Path 242" d="M317.242,751.858h9.669a6.162,6.162,0,0,1,6.162,6.162v.2H317.243Z" transform="translate(-259.351 -477.891)" fill="#2f2e41"/>
      <path id="Path_243" data-name="Path 243" d="M24.366,611.121l4.219,2.512,11.7-15.077-6.226-3.707Z" transform="translate(-14.023 -342.34)" fill="#a0616a"/>
      <path id="Path_244" data-name="Path 244" d="M200.214,734.889l8.308,4.947h0a6.162,6.162,0,0,1,2.142,8.447l-.1.172-13.6-8.1Z" transform="translate(-190.127 -468.126)" fill="#2f2e41"/>
      <path id="Path_245" data-name="Path 245" d="M263.867,617.452h-5.5a1.8,1.8,0,0,1-1.792-1.612l-5.543-52.1a.6.6,0,0,0-1.145-.184l-10,22.141-17.7,28.867a1.811,1.811,0,0,1-2.262.707l-7.072-3.112a1.8,1.8,0,0,1-.821-2.574l16.274-27.249,4.991-22.959c-1.57-9.957,5.16-24.759,5.228-24.908l.033-.072,18.537-7.245.093.114c7.31,23.99,11.765,49.807,8.476,88.535A1.814,1.814,0,0,1,263.867,617.452Z" transform="translate(-198.655 -348.571)" fill="#2f2e41"/>
      <path id="Path_246" data-name="Path 246" d="M262.05,500.566l-.086-.181c-.041-.087-4.163-8.78-7.34-18.071a13.7,13.7,0,0,1,.95-10.983,13.854,13.854,0,0,1,8.835-6.794h0a13.871,13.871,0,0,1,16.1,8.307c2.52,6.3,1.717,13.03.961,18.32l-.015.106-.1.046Z" transform="translate(-222.894 -312.315)" fill="#3f3d56"/>
      <path id="Path_247" data-name="Path 247" d="M288.949,408.808H273.33V402c3.428-1.362,6.783-2.52,8.811,0a6.808,6.808,0,0,1,6.808,6.808Z" transform="translate(-234.079 -275.69)" fill="#2f2e41"/>
      <path id="Path_248" data-name="Path 248" d="M255.091,401.185c-9.337,0-11.951,11.7-11.951,18.306,0,3.682,1.665,5,4.282,5.445l.924-4.929,2.165,5.141c.735,0,1.507-.011,2.308-.025l.734-1.511,1.637,1.484c6.555.01,11.852.965,11.852-5.6C267.041,412.889,264.749,401.185,255.091,401.185Z" transform="translate(-216.704 -276.077)" fill="#2f2e41"/>
      <path id="Path_249" data-name="Path 249" d="M262.791,766.782h-81.5a.424.424,0,1,1,0-.849h81.5a.424.424,0,1,1,0,.849Z" transform="translate(-180.864 -485.992)" fill="#ccc"/>
      <path id="Path_250" data-name="Path 250" d="M347.26,403.252H329.007a4.037,4.037,0,0,1-4.033-4.033V380.966a4.037,4.037,0,0,1,4.033-4.033H347.26a4.037,4.037,0,0,1,4.033,4.033v18.253a4.037,4.037,0,0,1-4.033,4.033Z" transform="translate(-263.801 -262.12)" fill="#fff"/>
      <path id="Path_251" data-name="Path 251" d="M347.26,403.252H329.007a4.037,4.037,0,0,1-4.033-4.033V380.966a4.037,4.037,0,0,1,4.033-4.033H347.26a4.037,4.037,0,0,1,4.033,4.033v18.253a4.037,4.037,0,0,1-4.033,4.033Zm-18.253-25.47a3.187,3.187,0,0,0-3.184,3.184v18.253a3.187,3.187,0,0,0,3.184,3.184H347.26a3.187,3.187,0,0,0,3.184-3.184V380.966a3.187,3.187,0,0,0-3.184-3.184Z" transform="translate(-263.801 -262.12)" fill="#3f3d56"/>
      <path id="Path_252" data-name="Path 252" d="M352.134,405.895H340.248a1.275,1.275,0,0,1-1.273-1.273v-8.914a1.275,1.275,0,0,1,1.273-1.273h3.346a1.265,1.265,0,0,1,1.085.606l.933,1.517h6.522a1.275,1.275,0,0,1,1.273,1.273v6.792a1.275,1.275,0,0,1-1.273,1.273Z" transform="translate(-271.858 -272.191)" fill="#dcc43e"/>
      <path id="Path_253" data-name="Path 253" d="M321.868,428.942q.089.163.165.335a4.406,4.406,0,0,1-2.714,5.989,4.132,4.132,0,0,1-.419.106l-8.108,20.972a3.422,3.422,0,0,1-3.465,2.164l-.041-.008-17.573-5.29A3.777,3.777,0,1,1,291.958,446l12.433,3.992,9.626-17.065a4.19,4.19,0,0,1-.217-.547,4.406,4.406,0,0,1,8.068-3.435Z" transform="translate(-241.979 -290.735)" fill="#a0616a"/>
    </g>
  </g>
</svg>
