<svg xmlns="http://www.w3.org/2000/svg" width="409" height="293.134" viewBox="0 0 409 293.134">
  <g id="Group_67" data-name="Group 67" transform="translate(-85 -1489)">
    <rect id="Rectangle_128" data-name="Rectangle 128" width="409" height="293" transform="translate(85 1489)" fill="#fff"/>
    <g id="Group_60" data-name="Group 60" transform="translate(196 1537)">
      <g id="Group_58" data-name="Group 58" transform="translate(115.888 216.918)">
        <path id="Path_183" data-name="Path 183" d="M258.628,446.4h-6.082l-2.893-23.46h8.977Z" transform="translate(-237.5 -422.944)" fill="#a0616a"/>
        <path id="Path_184" data-name="Path 184" d="M226.247,461.9h0a5.222,5.222,0,0,0-.289,1.719h0a2.064,2.064,0,0,0,2.064,2.064h18.836a1.408,1.408,0,0,0,1.408-1.408v-.784a6.021,6.021,0,0,0-.987-5.262s-2.384,2.275-5.947-1.288l-1.051-1.9-7.605,5.562-4.215.519c-.922.113-1.74-.018-2.214.781h0Z" transform="translate(-225.958 -438.578)" fill="#2f2e41"/>
      </g>
      <g id="Group_59" data-name="Group 59" transform="translate(144.096 216.918)">
        <path id="Path_185" data-name="Path 185" d="M313.627,446.4h-6.082l-2.893-23.46h8.977Z" transform="translate(-292.5 -422.944)" fill="#a0616a"/>
        <path id="Path_186" data-name="Path 186" d="M281.247,461.9h0a5.222,5.222,0,0,0-.289,1.719h0a2.064,2.064,0,0,0,2.064,2.064h18.836a1.408,1.408,0,0,0,1.408-1.408v-.784a6.021,6.021,0,0,0-.987-5.262s-2.384,2.275-5.947-1.288l-1.051-1.9-7.605,5.562-4.215.519c-.922.113-1.74-.018-2.214.781Z" transform="translate(-280.958 -438.578)" fill="#2f2e41"/>
      </g>
      <path id="Path_187" data-name="Path 187" d="M255.127,66.7a10.23,10.23,0,0,1-3.341-3.61c-.676-1.513-.406-3.588,1.029-4.416,1.932-1.115,4.466.6,6.571-.14,1.43-.5,2.236-1.968,3.013-3.268s1.87-2.673,3.384-2.739c1.954-.086,3.316,2.023,5.217,2.481,2.131.514,4.262-1.163,6.441-.925a4.418,4.418,0,0,1,3.657,4.17,6.145,6.145,0,0,1-2.7,5.116c-2.237,1.594-5.128,1.855-7.867,2.064l-15.416,1.175" transform="translate(-122.479 -25.585)" fill="#e6e6e6"/>
      <circle id="Ellipse_73" data-name="Ellipse 73" cx="13.906" cy="13.906" r="13.906" transform="translate(125.593 3.932)" fill="#a0616a"/>
      <path id="Path_188" data-name="Path 188" d="M262.556,21.409l4.271,5.464s6.3-10.375,1.481-17.268c0,0-2.294-2.289-2.114-4.1S262.31.762,259.5,1.4,257.114.018,257.114.018l-2.88,1.319L252.3,0l-1.541,1.68s-9.279,1.143-7.367,7.29c0,0-8.324,3.071-5.417,6.108s6.605,2.716,7.6,1.9,9.483-.894,9.483-.894l.5,4.174,3.855-1.91s4.015-1.206,3.134,3.06Z" transform="translate(-115.625)" fill="#2f2e41"/>
      <path id="Path_189" data-name="Path 189" d="M84.65,148.527a1.026,1.026,0,0,1-.725-1.751l13.627-13.627a4.629,4.629,0,0,0,1.329-3.872l-.672-5.377a1.026,1.026,0,1,1,2.035-.254l.672,5.377A6.666,6.666,0,0,1,99,134.6L85.376,148.227A1.022,1.022,0,0,1,84.65,148.527Z" transform="translate(-40.736 -59.793)" fill="#3f3d56"/>
      <rect id="Rectangle_125" data-name="Rectangle 125" width="11.864" height="7.458" transform="matrix(0.994, -0.11, 0.11, 0.994, 48.626, 59.908)" fill="#3f3d56"/>
      <rect id="Rectangle_126" data-name="Rectangle 126" width="11.864" height="3.729" transform="translate(39.169 62.285)" fill="#3f3d56"/>
      <path id="Path_190" data-name="Path 190" d="M51.051,105.4,41.3,108.889a3.9,3.9,0,0,1-4.975-2.307l-12.959,3.747a5.668,5.668,0,0,1-1.522.246,10.878,10.878,0,0,0-1.5.184c-2.259.416-2.3.374-2.711-2.328-.007-.055-2.038-6.1-2.052-6.155-.287-1.972-.273-2.47,1.235-3.07.682-.266,1.488-.519,2.327-.867.082-.041.164-.075.253-.109L32.264,93.5V91.7H30.019l-1.358-3.166,12.031-5.425A6.173,6.173,0,0,1,49.1,86.853l.328,1.037,3.33,10.441.7,2.2a3.9,3.9,0,0,1-2.409,4.866Z" transform="translate(-7.519 -40.218)" fill="#3f3d56"/>
      <path id="Path_191" data-name="Path 191" d="M237.89,241.483l5.04,102.327,11.8-.513,7.976-79.12,8.948,79.632,10.258-1.026,7.1-96.4Z" transform="translate(-115.882 -117.632)" fill="#2f2e41"/>
      <path id="Path_192" data-name="Path 192" d="M268.254,64.733c-8.206.831-15.117,2.805-20.374,2.837l-13.153,6.447,2.508,45.239-1.271,36.867s21.458,5.322,35.385,7.643,17.06,0,17.06,0l-7.315-32.433L278.552,68.4l-10.3-3.672Z" transform="translate(-114.341 -31.533)" fill="#e6e6e6"/>
      <path id="Path_193" data-name="Path 193" d="M331.63,161.249l.323-25.167-9.661-2.657.292,27.828-2.223,20.564.058.022a8.077,8.077,0,0,0-2.01,4.2c-.587,3.226.489,6.124,2.4,6.473s3.944-1.984,4.532-5.21a8.809,8.809,0,0,0-.065-3.65l.086.032Z" transform="translate(-155.027 -64.995)" fill="#a0616a"/>
      <path id="Path_194" data-name="Path 194" d="M164.073,168.875l21.634-12.864-2.777-9.627-23.582,14.778-18.7,8.84.012.06a8.077,8.077,0,0,0-4.632.479c-3.058,1.183-4.968,3.614-4.265,5.43s3.751,2.328,6.809,1.145a8.809,8.809,0,0,0,3.079-1.961l.018.09Z" transform="translate(-64.114 -71.307)" fill="#a0616a"/>
      <path id="Path_195" data-name="Path 195" d="M306.546,71.266s4.384-3.353,7.479,1.547,11.605,29.658,11.605,29.658,2.461,11.347,1.875,13.024-1.36,16.43-1.36,16.43l-12.092-2.193.292-14.237L302.824,97.1Z" transform="translate(-147.513 -34.17)" fill="#e6e6e6"/>
      <path id="Path_196" data-name="Path 196" d="M212.612,83.07s-8.511-.577-9.542,5-7.479,31.623-7.479,31.623L182.18,128.2l5.626,11.917s3.4-2.375,6.237-2.375,9.026-4.351,9.026-4.351,11.111-9.765,11.111-11.57-1.569-38.753-1.569-38.753Z" transform="translate(-88.744 -40.457)" fill="#e6e6e6"/>
      <rect id="Rectangle_127" data-name="Rectangle 127" width="4.9" height="56.526" transform="translate(49.081 81.995) rotate(-43.054)" fill="#3f3d56"/>
      <ellipse id="Ellipse_74" data-name="Ellipse 74" cx="2.114" cy="1.269" rx="2.114" ry="1.269" transform="translate(22.837 46.226) rotate(-21.83)" fill="#dcc43e"/>
      <path id="Path_197" data-name="Path 197" d="M260.378,71.937a1.26,1.26,0,0,0-.89.9,1.3,1.3,0,0,0-.015.581,21.743,21.743,0,0,1,.61,4.382v25.361a.513.513,0,0,0,.513.513h.245a.513.513,0,0,0,.513-.513V78.648a34.043,34.043,0,0,1,.62-5.287,1.273,1.273,0,0,0-1.6-1.424Z" transform="translate(-126.383 -35.021)" fill="#dcc43e"/>
      <path id="Path_198" data-name="Path 198" d="M290.123,68.219a1.26,1.26,0,0,0-.89.9,1.3,1.3,0,0,0-.015.581,21.77,21.77,0,0,1,.61,4.384V98.808a.513.513,0,0,0,.513.513h.246a.513.513,0,0,0,.513-.513V74.93a34.04,34.04,0,0,1,.62-5.287,1.273,1.273,0,0,0-1.6-1.424Z" transform="translate(-140.872 -33.21)" fill="#dcc43e"/>
      <path id="Path_199" data-name="Path 199" d="M62.067,418.354a1.164,1.164,0,0,1-.844-2.017l.08-.317-.032-.076c-1.074-2.561-3-.144-5.769.028-4.076.253-4.015,3.336-2.436,6.94.429.979-3.21-6.917-3.21-12.217a35.781,35.781,0,0,1,.222-3.992q.184-1.63.51-3.236a37.5,37.5,0,0,1,7.437-15.894,9.98,9.98,0,0,0,4.151-4.306c.321-.656,3.082-1.21,3.2-1.929-.2.026-3.271-3.2-3.118-3.391-.282-.427-.786-.64-1.093-1.057-1.53-2.074-3.637-1.712-4.737,1.106-2.35,1.186-2.373,3.153-.931,5.045.917,1.2,1.043,2.832,1.848,4.121-.083.106-.169.209-.252.315l-.1.123a2.657,2.657,0,0,1-4.617-.747c-.053-.146-.5,7.747-.164-.422s-2.6-4.011-4.089-5.895a3.2,3.2,0,0,0-5.7,1.622l-.009.082q.33.186.646.4a1.579,1.579,0,0,1-.637,2.873l-.032,0a15.708,15.708,0,0,0,.414,2.349c-1.9,7.34,2.2,10.015,8.049,10.136l.3.434a38.555,38.555,0,0,0-1.99,9.521l-.005.067a1.49,1.49,0,0,1-2.62.861,4.846,4.846,0,0,0-.655-.672c-2.536-2.084-6.12-2.851-8.856-4.526a1.812,1.812,0,0,0-2.775,1.763l.011.073a10.6,10.6,0,0,1,1.189.573q.33.186.647.4a1.578,1.578,0,0,1-.638,2.872l-.032,0-.066.01.021.05a5.622,5.622,0,0,0,5.437,3.418c2.749-.15,6.163,2.148,9.174,6.211h0a38.514,38.514,0,0,0,2.587,7.553h9.242c.033-.1.063-.209.093-.311a10.5,10.5,0,0,1-2.557-.152c.686-.841,1.371-1.689,2.057-2.531a.578.578,0,0,0,.043-.05c.348-.431.7-.858,1.047-1.289h0a15.381,15.381,0,0,0-.451-3.918h0Z" transform="translate(-16.679 -182.948)" fill="#f2f2f2"/>
      <path id="Path_200" data-name="Path 200" d="M0,476.19a.608.608,0,0,0,.61.61h185.3a.61.61,0,1,0,0-1.221H.61A.609.609,0,0,0,0,476.19Z" transform="translate(0 -231.667)" fill="#ccc"/>
      <path id="Path_201" data-name="Path 201" d="M20.538,122.521a8.43,8.43,0,0,1-1.032,4.051c-2.258.414-3.628,1.193-4.043-1.514-.008-.051-1.683-6.715-1.692-6.766-.288-1.971.7-2.673,2.207-3.273A8.446,8.446,0,0,1,20.538,122.521Z" transform="translate(-6.684 -56.029)" fill="#dcc43e"/>
      <path id="Path_202" data-name="Path 202" d="M81.828,103.393l-2.4.546a2.437,2.437,0,0,1-2.914-1.843l-1.338-5.889a2.439,2.439,0,0,1,1.843-2.921l1.481-.334,3.33,10.441Z" transform="translate(-36.589 -45.279)" fill="#dcc43e"/>
    </g>
  </g>
</svg>
