<svg id="Group_24" data-name="Group 24" xmlns="http://www.w3.org/2000/svg" width="408.986" height="311.608" viewBox="0 0 408.986 311.608">
  <g id="Group_18" data-name="Group 18" transform="translate(8.439 15.057)">
    <circle id="Ellipse_1" data-name="Ellipse 1" cx="27.738" cy="27.738" r="27.738" transform="translate(295.024 43.672)" fill="#dcc43e"/>
    <path id="Path_1" data-name="Path 1" d="M255.619,210.478c0,73.28-46.92,90.635-112.473,90.635s-84.6-1.728-84.6-75.009S-26.42,25.514,39.133,25.514,255.619,137.2,255.619,210.478Z" transform="translate(-14.3 -25.514)" fill="#f2f2f2"/>
    <path id="Path_2" data-name="Path 2" d="M385.639,331.14H168.03a15.739,15.739,0,0,1-15.721-15.721V150.925A15.739,15.739,0,0,1,168.03,135.2H385.639a15.739,15.739,0,0,1,15.721,15.721V315.419a15.739,15.739,0,0,1-15.721,15.721ZM168.03,136.385a14.557,14.557,0,0,0-14.54,14.54V315.419a14.557,14.557,0,0,0,14.54,14.54H385.639a14.557,14.557,0,0,0,14.54-14.54V150.925a14.557,14.557,0,0,0-14.54-14.54Z" transform="translate(-70.861 -70.469)" fill="#3f3d56"/>
    <g id="Group_16" data-name="Group 16" transform="translate(130.721 237.738)">
      <ellipse id="Ellipse_2" data-name="Ellipse 2" cx="4.46" cy="0.724" rx="4.46" ry="0.724" transform="translate(27.184 10.193) rotate(-1.469)" fill="#e6e6e6"/>
      <ellipse id="Ellipse_3" data-name="Ellipse 3" cx="4.46" cy="0.724" rx="4.46" ry="0.724" transform="translate(55.442 7.84) rotate(-1.469)" fill="#3f3d56"/>
      <ellipse id="Ellipse_4" data-name="Ellipse 4" cx="4.46" cy="0.724" rx="4.46" ry="0.724" transform="translate(15.809 5.327) rotate(-1.469)" fill="#ff6584"/>
      <ellipse id="Ellipse_5" data-name="Ellipse 5" cx="0.651" cy="1.981" rx="0.651" ry="1.981" transform="matrix(0.011, -1, 1, 0.011, 6.913, 5.119)" fill="#e6e6e6"/>
      <ellipse id="Ellipse_6" data-name="Ellipse 6" cx="0.651" cy="1.981" rx="0.651" ry="1.981" transform="matrix(0.011, -1, 1, 0.011, 0, 1.301)" fill="#3f3d56"/>
      <ellipse id="Ellipse_7" data-name="Ellipse 7" cx="0.651" cy="1.981" rx="0.651" ry="1.981" transform="matrix(0.011, -1, 1, 0.011, 37.594, 6.504)" fill="#e6e6e6"/>
      <ellipse id="Ellipse_8" data-name="Ellipse 8" cx="0.651" cy="1.981" rx="0.651" ry="1.981" transform="matrix(0.011, -1, 1, 0.011, 24.783, 8.921)" fill="#ff6584"/>
      <ellipse id="Ellipse_9" data-name="Ellipse 9" cx="0.651" cy="1.981" rx="0.651" ry="1.981" transform="matrix(0.011, -1, 1, 0.011, 46.017, 10.709)" fill="#3f3d56"/>
    </g>
    <g id="Group_17" data-name="Group 17" transform="translate(219.836 236.557)">
      <ellipse id="Ellipse_10" data-name="Ellipse 10" cx="4.46" cy="0.724" rx="4.46" ry="0.724" transform="translate(27.184 10.194) rotate(-1.469)" fill="#e6e6e6"/>
      <ellipse id="Ellipse_11" data-name="Ellipse 11" cx="4.46" cy="0.724" rx="4.46" ry="0.724" transform="translate(55.442 7.841) rotate(-1.469)" fill="#3f3d56"/>
      <ellipse id="Ellipse_12" data-name="Ellipse 12" cx="4.46" cy="0.724" rx="4.46" ry="0.724" transform="translate(15.809 5.328) rotate(-1.469)" fill="#ff6584"/>
      <ellipse id="Ellipse_13" data-name="Ellipse 13" cx="0.651" cy="1.981" rx="0.651" ry="1.981" transform="matrix(0.011, -1, 1, 0.011, 6.913, 5.119)" fill="#e6e6e6"/>
      <ellipse id="Ellipse_14" data-name="Ellipse 14" cx="0.651" cy="1.981" rx="0.651" ry="1.981" transform="matrix(0.011, -1, 1, 0.011, 0, 1.301)" fill="#3f3d56"/>
      <ellipse id="Ellipse_15" data-name="Ellipse 15" cx="0.651" cy="1.981" rx="0.651" ry="1.981" transform="matrix(0.011, -1, 1, 0.011, 37.594, 6.504)" fill="#e6e6e6"/>
      <ellipse id="Ellipse_16" data-name="Ellipse 16" cx="0.651" cy="1.981" rx="0.651" ry="1.981" transform="matrix(0.011, -1, 1, 0.011, 24.783, 8.921)" fill="#ff6584"/>
      <ellipse id="Ellipse_17" data-name="Ellipse 17" cx="0.651" cy="1.981" rx="0.651" ry="1.981" transform="matrix(0.011, -1, 1, 0.011, 46.017, 10.709)" fill="#3f3d56"/>
    </g>
    <path id="Path_3" data-name="Path 3" d="M225.951,348.285a1.657,1.657,0,0,1-1.2-2.872l.114-.451-.045-.108a4.449,4.449,0,0,0-8.207.031c-1.342,3.233-3.051,6.471-3.472,9.89a13.163,13.163,0,0,0,.231,4.527,52.773,52.773,0,0,1-4.8-21.918,50.934,50.934,0,0,1,.316-5.682q.262-2.32.726-4.607A53.384,53.384,0,0,1,220.2,304.468a14.207,14.207,0,0,0,5.909-6.13,10.837,10.837,0,0,0,.986-2.961c-.288.038-1.085-4.343-.868-4.612-.4-.608-1.118-.911-1.556-1.5-2.177-2.952-5.177-2.437-6.743,1.575-3.345,1.688-3.378,4.489-1.325,7.182,1.306,1.713,1.485,4.032,2.631,5.866-.118.151-.241.3-.358.448a53.725,53.725,0,0,0-5.608,8.884,22.336,22.336,0,0,0-1.333-10.374c-1.276-3.079-3.669-5.672-5.775-8.334a4.584,4.584,0,0,0-8.165,2.251l-.013.118q.469.265.919.562a2.247,2.247,0,0,1-.906,4.09l-.046.007a22.364,22.364,0,0,0,.589,3.343c-2.7,10.452,3.132,14.259,11.464,14.43.184.094.363.189.547.278a54.84,54.84,0,0,0-2.952,13.892,52.013,52.013,0,0,0,.038,8.4l-.014-.1a13.744,13.744,0,0,0-4.692-7.936c-3.611-2.966-8.712-4.058-12.608-6.443a2.579,2.579,0,0,0-3.951,2.509l.016.1a15.1,15.1,0,0,1,1.693.816q.469.265.919.562a2.247,2.247,0,0,1-.906,4.09l-.046.007-.094.014a22.382,22.382,0,0,0,4.117,6.446c1.69,9.124,8.948,9.99,16.712,7.333h0a54.821,54.821,0,0,0,3.683,10.752h13.156c.047-.146.09-.3.132-.443a14.947,14.947,0,0,1-3.64-.217c.976-1.2,1.952-2.4,2.928-3.6a.817.817,0,0,0,.061-.071c.5-.613.995-1.221,1.49-1.834h0a21.9,21.9,0,0,0-.642-5.578Z" transform="translate(-84.806 -132.834)" fill="#dcc43e"/>
    <path id="Path_4" data-name="Path 4" d="M472.145,348.285a1.657,1.657,0,0,0,1.2-2.872l-.114-.451.045-.108a4.449,4.449,0,0,1,8.207.031c1.342,3.233,3.051,6.471,3.472,9.89a13.164,13.164,0,0,1-.231,4.527,52.772,52.772,0,0,0,4.8-21.918,50.927,50.927,0,0,0-.316-5.682q-.262-2.32-.726-4.607A53.383,53.383,0,0,0,477.9,304.468a14.207,14.207,0,0,1-5.909-6.13,10.838,10.838,0,0,1-.986-2.961c.288.038,1.085-4.343.868-4.612.4-.608,1.118-.911,1.556-1.5,2.177-2.952,5.177-2.437,6.743,1.575,3.345,1.688,3.378,4.489,1.325,7.182-1.306,1.713-1.485,4.032-2.631,5.866.118.151.241.3.358.448a53.731,53.731,0,0,1,5.608,8.884,22.336,22.336,0,0,1,1.333-10.374c1.276-3.079,3.669-5.672,5.775-8.334a4.584,4.584,0,0,1,8.165,2.251l.013.118q-.469.265-.919.562a2.247,2.247,0,0,0,.906,4.09l.046.007a22.368,22.368,0,0,1-.589,3.343c2.7,10.452-3.132,14.259-11.464,14.43-.184.094-.363.189-.547.278a54.842,54.842,0,0,1,2.952,13.892,52.027,52.027,0,0,1-.038,8.4l.014-.1a13.744,13.744,0,0,1,4.692-7.936c3.611-2.966,8.712-4.058,12.607-6.443a2.579,2.579,0,0,1,3.951,2.509l-.016.1a15.1,15.1,0,0,0-1.693.816q-.469.265-.919.562a2.247,2.247,0,0,0,.906,4.09l.046.007.094.014a22.378,22.378,0,0,1-4.117,6.446c-1.69,9.124-8.948,9.99-16.712,7.333h0a54.825,54.825,0,0,1-3.683,10.752H472.475c-.047-.146-.09-.3-.132-.443a14.948,14.948,0,0,0,3.641-.217c-.976-1.2-1.952-2.4-2.928-3.6a.817.817,0,0,1-.061-.071c-.5-.613-.995-1.221-1.49-1.834h0a21.9,21.9,0,0,1,.642-5.578h0Z" transform="translate(-201.472 -132.834)" fill="#dcc43e"/>
    <path id="Path_5" data-name="Path 5" d="M41.872,410.118a.7.7,0,0,0,.7.7H417.5a.7.7,0,1,0,0-1.4H42.574A.7.7,0,0,0,41.872,410.118Z" transform="translate(-25.6 -182.85)" fill="#3f3d56"/>
  </g>
  <path id="Path_6" data-name="Path 6" d="M76.84,82.9H60.905a2.951,2.951,0,1,1,0-5.9H76.84a2.951,2.951,0,0,1,0,5.9Z" transform="translate(-23.752 -31.557)" fill="#e6e6e6"/>
  <g id="Group_19" data-name="Group 19" transform="translate(298.031 44.87)">
    <circle id="Ellipse_18" data-name="Ellipse 18" cx="3" cy="3" r="3" transform="translate(-0.031 0.241)" fill="#e6e6e6"/>
    <ellipse id="Ellipse_19" data-name="Ellipse 19" cx="2" cy="3" rx="2" ry="3" transform="translate(8.969 0.241)" fill="#e6e6e6"/>
    <circle id="Ellipse_20" data-name="Ellipse 20" cx="3" cy="3" r="3" transform="translate(15.969 0.241)" fill="#e6e6e6"/>
  </g>
  <path id="Path_7" data-name="Path 7" d="M613.972,283.5V414.4A13.407,13.407,0,0,1,600.581,427.8H500.17l.932-1.18L612.792,285Z" transform="translate(-204.986 -116.188)" fill="#f2f2f2"/>
  <path id="Path_8" data-name="Path 8" d="M395.595,0H13.391A13.407,13.407,0,0,0,0,13.391V298.217a13.407,13.407,0,0,0,13.391,13.391h382.2a13.407,13.407,0,0,0,13.391-13.391V13.391A13.407,13.407,0,0,0,395.595,0Zm12.211,298.217a12.211,12.211,0,0,1-12.211,12.211H13.391A12.211,12.211,0,0,1,1.18,298.217V93.055A91.875,91.875,0,0,1,93.055,1.18h302.54a12.211,12.211,0,0,1,12.211,12.211Z" fill="#e6e6e6"/>
  <path id="Path_9" data-name="Path 9" d="M390.862,250.515l-1.8-27.937a4.519,4.519,0,0,0-4.742-4.208h0a4.519,4.519,0,0,0-4.261,4.985l2.763,28.962.937,17.669a3.943,3.943,0,1,0,4.911,1.223l2.2-20.694Z" transform="translate(-155.749 -89.493)" fill="#ffb6b6"/>
  <path id="Path_10" data-name="Path 10" d="M389.648,245.613h0a1.332,1.332,0,0,0,.146-1.609,1.728,1.728,0,0,1-.242-1.026c.006-.069.017-16.663.032-16.731a2.607,2.607,0,0,0-.562-2.344,8.245,8.245,0,0,1-1.642-4.045,19.665,19.665,0,0,0-1.06-4.608c-.9-2.095-2.937-3.917-5.591-2.914a5.248,5.248,0,0,0-2.647,2.314c-1.263,2.185-1.184,4.769-1.086,7.24l-.517-.959a20.064,20.064,0,0,1-1.151,7.941c.595-.138,1.047,17.176.875,17.762a3.509,3.509,0,0,1-1.138,1.4c-.56.528-1.078,1.3-.508,2.057a1.643,1.643,0,0,0,1.165.613,31.048,31.048,0,0,0,12.627-1.43,3.789,3.789,0,0,0,2.313-1.543C391.105,246.894,390.6,245.566,389.648,245.613Z" transform="translate(-153.404 -86.906)" fill="#dcc43e"/>
  <g id="Group_20" data-name="Group 20" transform="translate(184.333 247.199)">
    <path id="Path_11" data-name="Path 11" d="M324.46,434.681l-4.012,1.572-8.107-15.07,5.921-2.32Z" transform="translate(-312.341 -418.862)" fill="#ffb6b6"/>
    <path id="Path_12" data-name="Path 12" d="M315.411,455.591a1.929,1.929,0,0,0,2.5,1.091l7.976-3.126.259-3.38,1.65,2.63,3.01-1.177-4.819-9.808-1.071.35-4.374,1.416-1.41.46,1.125,2.871-4.646,6.9A1.926,1.926,0,0,0,315.411,455.591Z" transform="translate(-313.544 -428.271)" fill="#2f2e41"/>
  </g>
  <g id="Group_21" data-name="Group 21" transform="translate(223.795 284.304)">
    <path id="Path_13" data-name="Path 13" d="M397.585,498.721l-4.308.089-2.4-16.943,6.358-.132Z" transform="translate(-383.989 -481.735)" fill="#ffb6b6"/>
    <path id="Path_14" data-name="Path 14" d="M379.207,516.171a1.929,1.929,0,0,0,1.966,1.887l8.565-.178,1.411-3.082.64,3.038,3.232-.065L393.886,506.9l-1.126-.042-4.594-.182-1.482-.056.064,3.083L380,514.57a1.926,1.926,0,0,0-.8,1.6Z" transform="translate(-379.206 -491.934)" fill="#2f2e41"/>
  </g>
  <path id="Path_15" data-name="Path 15" d="M318.955,272.273l28.332,4.948-1.066,5.331s1.777,2.236,1.066,3.073-2.132-.585-.711.837,1.877,1.8-.255,3.937,1.3-1.275,1.3-1.275.163,3.924.989,5.155c5.717,8.519,4.183,16.138,1.26,25.973-1.654,5.565,1.755,16.293,1.755,18.253l-.334,13.732s7.463,30.209,3.554,44.425l.552,5.468-9.082.218L335.658,359.7s-1.671-4.274-1.724-5.869-.053-.173-.053-1.595a27.56,27.56,0,0,0-.355-3.2c0-.355-2.843-35.109-2.843-35.109s-10.429,5.754-11.5,6.82-2.965.091-2.951,1.18-.979,1.486-1.77,2.361-2.1-.89-1.387,1.6-9.436,6.27-10.5,7.336,8.348,8.771,7.168,23.525l-.59,5.9-7.672,3.541L285.1,335.669a10.376,10.376,0,0,1,1.482-11.05l23.165-27.474s2.813-13.5,5.3-14.92l3.909-9.951Z" transform="translate(-116.448 -111.587)" fill="#2f2e41"/>
  <path id="Path_16" data-name="Path 16" d="M363.821,239.916c.249-1.063-1.805-8.37-.931-10.953.572-1.692,1.948-2.939,1.93-4.954a3.189,3.189,0,0,0-.025-.405c-.007-.072-.022-.145-.033-.218,1.779-6.335,2.669-18.114,2.669-18.114l-8.512-10.151c-.005-.044-.013-.087-.017-.131-.174-1.5-1.438-.411-2.824-1.2-.618-.348-.3-3.2-1.01-3-.024.007-.047.017-.07.024l-.022-.024-1.4-1.51-7.724-.711-1.795,2.449v.018c-1.529.283-1.922.451-2.156,2.147-.043.32-.071.64-.082.963-.053,1.209-6.376,2.423-6.086,3.573l-2.076,1.384s-7.8,9.724-4.959,12.568a8.239,8.239,0,0,1,1.877,4.826c.008.066.022.125.034.187-.326,1.046-.78,2.823-.037,3.207,1.323.683,4.173,20.543,1.162,21.96-7.133,3.357,12,9.969,19.614,10.371a23.152,23.152,0,0,0,7.026-.608l7.151.6-.59-3.541C370.055,248.238,363.565,241.017,363.821,239.916Z" transform="translate(-134.454 -77.281)" fill="#dcc43e"/>
  <g id="Group_22" data-name="Group 22" transform="translate(159.44 77.081)">
    <path id="Path_17" data-name="Path 17" d="M279.2,162.331l20.853,17.948a4.639,4.639,0,0,0,6.445.911h0a4.64,4.64,0,0,0,.818-6.683l-22.256-18.281L277.694,136.7a4.049,4.049,0,1,0-4.9,1.74Z" transform="translate(-270.16 -130.609)" fill="#ffb6b6"/>
    <path id="Path_18" data-name="Path 18" d="M284.56,182.143h0c-.107.61,13.8,11.812,14.362,12.082a1.775,1.775,0,0,1,.79.741,1.628,1.628,0,0,1,.089.195,2.677,2.677,0,0,0,1.811,1.687,8.467,8.467,0,0,1,3.7,2.529,20.183,20.183,0,0,0,3.522,3.342c1.959,1.282,4.736,1.685,6.438-.679a5.388,5.388,0,0,0,.952-3.482c-.159-2.586-1.692-4.753-3.179-6.812l.987.528c-1.659-2.212-4.766-2.777-5.422-5.463-.431.455-1.266.037-1.45-.562s-13.539-11.86-13.4-12.47c.179-.769.184-1.725-.732-2.048a1.687,1.687,0,0,0-1.345.137c-3.862,2.067-5.386,2.959-8.092,6.4a3.89,3.89,0,0,0-1.1,2.633C282.586,181.874,283.774,182.723,284.56,182.143Z" transform="translate(-275.209 -147.427)" fill="#dcc43e"/>
  </g>
  <circle id="Ellipse_21" data-name="Ellipse 21" cx="12.224" cy="12.224" r="12.224" transform="translate(201.157 87.473)" fill="#ffb6b6"/>
  <path id="Path_19" data-name="Path 19" d="M114.475,182.13H51.11a3.562,3.562,0,0,0,0,7.125h63.366a3.562,3.562,0,0,0,0-7.125Z" transform="translate(-19.486 -74.643)" fill="#e6e6e6"/>
  <path id="Path_20" data-name="Path 20" d="M86.859,148.286H51.11a3.562,3.562,0,1,0,0,7.124H86.859a3.562,3.562,0,0,0,0-7.124Z" transform="translate(-19.486 -60.772)" fill="#e6e6e6"/>
  <path id="Path_21" data-name="Path 21" d="M114.475,363.13H51.11a3.562,3.562,0,1,0,0,7.124h63.366a3.562,3.562,0,1,0,0-7.124Z" transform="translate(-19.486 -148.823)" fill="#e6e6e6"/>
  <path id="Path_22" data-name="Path 22" d="M86.859,329.286H51.11a3.562,3.562,0,1,0,0,7.124H86.859a3.562,3.562,0,0,0,0-7.124Z" transform="translate(-19.486 -134.952)" fill="#e6e6e6"/>
  <path id="Path_23" data-name="Path 23" d="M623.824,475.021a1.339,1.339,0,0,0,.971-2.321l-.092-.365.036-.088a3.6,3.6,0,0,1,6.634.025c1.085,2.613,2.467,5.231,2.807,7.994a10.641,10.641,0,0,1-.187,3.659,42.658,42.658,0,0,0,3.88-17.717,41.2,41.2,0,0,0-.255-4.593q-.212-1.876-.587-3.724a43.151,43.151,0,0,0-8.557-18.289,11.485,11.485,0,0,1-4.776-4.955,8.76,8.76,0,0,1-.8-2.394,10.812,10.812,0,0,0,.7-3.728c.324-.492.9-.736,1.258-1.216,1.76-2.386,4.185-1.97,5.451,1.273,2.7,1.365,2.73,3.628,1.071,5.805-1.056,1.385-1.2,3.259-2.127,4.742.1.122.194.24.29.362a43.434,43.434,0,0,1,4.533,7.182,18.054,18.054,0,0,1,1.078-8.386c1.032-2.489,2.965-4.585,4.668-6.737a3.706,3.706,0,0,1,6.6,1.82c0,.032.007.063.01.1q-.38.214-.743.454a1.817,1.817,0,0,0,.733,3.306l.037.006a18.058,18.058,0,0,1-.476,2.7c2.185,8.449-2.532,11.526-9.266,11.664-.149.076-.293.152-.442.225a44.331,44.331,0,0,1,2.386,11.23,42.046,42.046,0,0,1-.03,6.789l.011-.08a11.111,11.111,0,0,1,3.793-6.415c2.919-2.4,7.042-3.281,10.191-5.208a2.085,2.085,0,0,1,3.194,2.029l-.013.084a12.206,12.206,0,0,0-1.368.659q-.379.214-.743.454a1.817,1.817,0,0,0,.732,3.306l.037.006.076.011a18.091,18.091,0,0,1-3.328,5.211c-1.366,7.375-7.233,8.075-13.509,5.927h0a44.31,44.31,0,0,1-2.977,8.691H624.09c-.038-.118-.072-.24-.107-.358a12.085,12.085,0,0,0,2.943-.175c-.789-.968-1.578-1.944-2.367-2.912a.7.7,0,0,1-.05-.057c-.4-.5-.8-.987-1.2-1.483h0a17.7,17.7,0,0,1,.519-4.509h0Z" transform="translate(-255.285 -174.501)" fill="#fff"/>
  <g id="Group_23" data-name="Group 23" transform="translate(198.056 83.254)">
    <path id="Path_24" data-name="Path 24" d="M364.651,153.081c1.71-6.234-16.926-11.579-20.547-6.559a3.951,3.951,0,0,0-3.218-.928,6.659,6.659,0,0,0-2.273,1.3,8.975,8.975,0,0,0-2.553,2.57,3.055,3.055,0,0,0,.114,3.424c.635.731,1.751,4.617,2.705,4.81.666.136,1.226.245,1.708.324.429-.626,1.523-1.413,1.445-2.17.648.429.411,1.184.281,1.956-.435,2.569-10.237,22.459-4.623,16.6a11.763,11.763,0,0,0,2.036.915A25.605,25.605,0,0,0,342.9,168.4l.005.046a5.455,5.455,0,0,0,3.939,4.564c8.427,2.441,15.244-1.141,17.589-7.6-.858-1.743-1.232-1.553-1.156-1.605a2.018,2.018,0,0,1,3.005.957c.136.356.259.66.366.889C367.87,161.278,369.323,161.909,364.651,153.081Z" transform="translate(-335.594 -142.489)" fill="#2f2e41"/>
    <path id="Path_25" data-name="Path 25" d="M374.327,147.138l-.861-4.4a1.756,1.756,0,0,1,.026-1.109,1.19,1.19,0,0,1,1.245-.545c.479.069.838.507,1.315.591,1.658.293,3.85-1.345,4.444,2.8.248,1.728,3,1.91,3.925,3.393s1.034,3.623-.223,4.834a3.79,3.79,0,0,1-3.918.585,8.522,8.522,0,0,1-3.263-2.545,29.383,29.383,0,0,0-2.795-3.1" transform="translate(-351.083 -141.068)" fill="#2f2e41"/>
    <path id="Path_26" data-name="Path 26" d="M380.635,156.38c-3.363-.47-5.655-1.693-6.813-3.635a6.821,6.821,0,0,1-.456-5.459l.711.264a6.156,6.156,0,0,0,.4,4.813c1.036,1.731,3.143,2.83,6.262,3.266Z" transform="translate(-350.921 -143.616)" fill="#6c63ff"/>
  </g>
</svg>
