<svg xmlns="http://www.w3.org/2000/svg" width="378" height="298.474" viewBox="0 0 378 298.474">
  <g id="Group_42" data-name="Group 42" transform="translate(0 0.389)">
    <path id="Path_78" data-name="Path 78" d="M186.485,504.525l6.75-.767.258-26.4-9.963,1.131Z" transform="translate(-81.831 -213.016)" fill="#ffb8b8"/>
    <path id="Path_79" data-name="Path 79" d="M466.923,708.632l-21.215,2.407h0l-.93-8.2h0l13.018-1.477a8.249,8.249,0,0,1,9.127,7.266h0Z" transform="translate(-341.791 -413.098)" fill="#2f2e41"/>
    <path id="Path_80" data-name="Path 80" d="M63.581,504.538h6.794l3.232-26.2H63.58Z" transform="translate(-28.349 -213.451)" fill="#ffb8b8"/>
    <path id="Path_81" data-name="Path 81" d="M341.228,711.243H319.877v-8.249h13.1a8.249,8.249,0,0,1,8.25,8.249Z" transform="translate(-286.1 -413.848)" fill="#2f2e41"/>
    <path id="Path_82" data-name="Path 82" d="M369.891,491.661l3.879,12.617,21.057,45.566,5.541,43.222-12.745.554-7.758-39.9-26.6-28.814L329.994,600.27l-10.528-1.108s8.866-97.526,21.057-107.5C340.522,491.661,360.47,482.241,369.891,491.661Z" transform="translate(-285.916 -317.753)" fill="#2f2e41"/>
    <circle id="Ellipse_30" data-name="Ellipse 30" cx="13.61" cy="13.61" r="13.61" transform="translate(53.158 92.248)" fill="#ffb8b8"/>
    <path id="Path_83" data-name="Path 83" d="M383.04,457.018s1.662-56.521-21.611-52.642-13.576,58.46-13.576,58.46,4.987,9.974,17.178-1.108S383.04,457.018,383.04,457.018Z" transform="translate(-297.681 -280.617)" fill="#ccc"/>
    <path id="Path_84" data-name="Path 84" d="M96.044,266.656l5.476,20.992,8.343,8.344-11.6-3.846Z" transform="translate(-42.824 -119.069)" opacity="0.2" style="isolation: isolate"/>
    <path id="Path_85" data-name="Path 85" d="M400.508,523.081a5.572,5.572,0,0,1-2.924-8.028L384.64,500.068l10.2-1.328,10.727,14.434a5.6,5.6,0,0,1-5.063,9.908Z" transform="translate(-314.976 -322.776)" fill="#ffb8b8"/>
    <path id="Path_86" data-name="Path 86" d="M371.726,419.415l1.457,28.662,17.178,22.165-7.2,5.541L359.884,452.51s-8.312-28.26-2.216-36.572c2.286-3.117,4.805-3.974,7.062-3.828A7.636,7.636,0,0,1,371.726,419.415Z" transform="translate(-301.954 -284.143)" fill="#ccc"/>
    <path id="Path_87" data-name="Path 87" d="M331.348,369.489a.562.562,0,0,0-.079-.9,7.915,7.915,0,0,1,.763-13.874c4-1.908,9.423-.424,12.381-4.09a6.876,6.876,0,0,0,1.276-5.584c-.638-3.463-3.241-6.034-6.156-7.8a22.4,22.4,0,0,0-33.851,21.685c.376,3.333,1.4,7.069-.577,9.775-1.744,2.381-5.036,2.828-7.928,3.42a29.847,29.847,0,0,0-16.4,8.926c-4.209,4.729-6.454,11.364-5.185,17.566s6.36,11.653,12.618,12.615c5.093.783,10.353-1.381,14.093-4.925s6.1-8.331,7.6-13.264c1.77-5.855,2.468-12.163,5.664-17.378,3.127-5.1,9.866-8.762,15.147-6.1a.566.566,0,0,0,.635-.076Z" transform="translate(-266.199 -249.331)" fill="#2f2e41"/>
    <path id="Path_88" data-name="Path 88" d="M429.592,718.234H259.476a.554.554,0,0,1,0-1.108H429.592a.554.554,0,0,1,0,1.108Z" transform="translate(-258.922 -420.149)" fill="#3f3d56"/>
    <path id="Path_89" data-name="Path 89" d="M775.871,327.959a62.868,62.868,0,1,1-3.98-22.138c.137.369.271.738.4,1.111v0q.87,2.458,1.533,5.007A63.293,63.293,0,0,1,775.871,327.959Z" transform="translate(-433.35 -218.538)" fill="#3f3d56"/>
    <path id="Path_90" data-name="Path 90" d="M730.328,299.535a21.236,21.236,0,0,0-18.643-.763,10.057,10.057,0,0,0-6.221,6.844c3.517-2.076,8.069,1.2,8.974,6.465l-.211.058c-.478,3.644.589,7.611,2.655,9.87a6.942,6.942,0,0,1,3.332-4.942c1.518-1,3.2-1.723,4.355-3.438,1.373-2.033,1.722-5,2.268-7.715S728.418,300.29,730.328,299.535Z" transform="translate(-458.024 -232.816)" fill="#dcc43e"/>
    <path id="Path_91" data-name="Path 91" d="M687.89,329.329a22.413,22.413,0,0,1-3.442,3.523,7.925,7.925,0,0,0-2.5,4.68c-.148,1.273.081,2.567.049,3.854s-.461,2.736-1.336,3.056c-1.382.5-2.437-2.068-3.857-2.247-1.129-.141-2.145,1.635-1.818,3.175s1.864,2.222,2.746,1.217c.8,1.34.235,3.769-.964,4.181-.127.844-.253,1.684-.376,2.528a41.588,41.588,0,0,1-8.671-7.381,22.4,22.4,0,0,1-5.106-12.068c-.334-3.569.162-7.651-1.477-10.4a5.639,5.639,0,0,0-5.587-2.546c-.369.025-.742.067-1.111.112a62.609,62.609,0,0,1,4.532-10.373,4.441,4.441,0,0,0,1.136-.707c1.885-1.6,2.722-4.838,4.251-7.078q.148-.216.306-.422a14.575,14.575,0,0,1,5.686-4.072c4.483-2.177,9.1-4.381,13.829-4.079l-1.347.13q-2.358,6.6-4.719,13.207-.359,1.013-.724,2.029a20.875,20.875,0,0,0-1.677,7.971c.081,1.66.658,3.432,1.755,4,1.023.527,2.141-.12,3.129-.76.418-.267.833-.534,1.252-.805,1.5-.967,3.165-1.959,4.75-1.312,1.452.591,2.525,2.563,2.729,4.691A9.378,9.378,0,0,1,687.89,329.329Z" transform="translate(-435.272 -231.603)" fill="#dcc43e"/>
    <path id="Path_92" data-name="Path 92" d="M717.578,405.117l-13.155-8.1.074-.192c-2.726,1.038-3.858,5.885-3.408,9.848s1.978,7.506,2.75,11.368a30.175,30.175,0,0,1-1.138,15.833,129.664,129.664,0,0,0,15.232-20.99,11.228,11.228,0,0,0,1.378-3.055,4.86,4.86,0,0,0-.322-3.457,3.849,3.849,0,0,0-1.412-1.256Z" transform="translate(-456.03 -277.335)" fill="#dcc43e"/>
    <path id="Path_93" data-name="Path 93" d="M699.326,320.382a4.849,4.849,0,0,0-.222,3.526,3.909,3.909,0,0,0,2.184,2.023l2.423,1.2a3.127,3.127,0,0,0,2.5.474c.991-.4,1.678-1.95,1.5-3.393a6.039,6.039,0,0,0-2.052-3.49l-3.757-3.775-.706.864a9.427,9.427,0,0,0-1.867,2.569Z" transform="translate(-455.085 -241.72)" fill="#dcc43e"/>
    <path id="Path_94" data-name="Path 94" d="M809.035,330.854l3.27.77c-.19,3.682-2.015,7.089-4.462,8.323-1.02.513-2.156.7-3,1.663a9.122,9.122,0,0,0-1.505,3.527l-1.867,6.793c-.668,2.44-1.526,5.151-3.263,6.03-1.491.756-3.2-.169-4.343-1.719a20.692,20.692,0,0,1-2.525-5.668c.042,2.215-.988,4.388-2.447,5.158s-3.242.074-4.219-1.646c-.7-1.234-1-2.862-1.684-4.114s-2.134-1.969-2.887-.795c-.5.781-.432,1.976-.679,2.968a3.223,3.223,0,0,1-2.693,2.591,4.491,4.491,0,0,1-3.224-1.473,14.606,14.606,0,0,1-4.005-8.077,9.635,9.635,0,0,1,.113-4.416c.432-1.368,1.477-2.423,2.514-2.162.682-1.442-.664-3.354-1.878-3.186s-2.169,1.473-3.168,2.475-2.387,1.73-3.39.735a1.375,1.375,0,0,1-1.288,1.457q-.054,0-.108,0a4.985,4.985,0,0,1-1.818-.963c-2.3-1.431-5.211-.482-6.843,2.226,1.02-4.339,2.514-9.318,5.647-10.338,1.28-.418,2.676-.074,3.885-.8,2.141-1.283,2.574-6.132.724-8.133.236,1.892.19,4.1-.809,5.394s-3.094.45-2.968-1.463a1.281,1.281,0,0,1-2.384.506,4.607,4.607,0,0,1-.137-3.878,9.134,9.134,0,0,1,2.05-2.911,25.136,25.136,0,0,1,5.3-4.726,6.007,6.007,0,0,1,6.115-.387c1.023.591,1.923,1.575,2.968,2.1a2.2,2.2,0,0,0,3.028-.709h0l.034-.057c.777-1.364.411-3.39.7-5.1.517-3.013,3.53-4.423,5.2-2.433-1.248-.32-2.539,1.157-2.693,2.947a4.251,4.251,0,0,0,1.955,4.139c2.032.9,4.023-1.364,5.559-3.46q2.405-3.291,4.817-6.579a7.946,7.946,0,0,1,.861-1.048,2.772,2.772,0,0,1,3.787-.077c1.625,1.326,2.388,4.044,3.72,5.914,1.934,2.718,4.828,3.379,7.521,3.907q3.012.585,6.027,1.178a62.43,62.43,0,0,1,3.5,7.725A21.174,21.174,0,0,0,809.035,330.854Z" transform="translate(-479.503 -235.783)" fill="#dcc43e"/>
    <path id="Path_95" data-name="Path 95" d="M853.656,426.246a63.039,63.039,0,0,1-5.239,8.766c-1.266-.542-2.627.425-3.812,1.333-1.238.949-2.725,1.874-3.994,1.009-1.3-.886-1.716-3.365-1.3-5.331a14.2,14.2,0,0,1,2.433-5.007c1.055-1.575,2.184-3.21,3.65-3.822a2.845,2.845,0,0,1,3.787,2.342l1.041-.035c-.584-.8-.278-2.461.506-2.753.9-.341,1.688.9,2.222,2C853.184,425.241,853.427,425.74,853.656,426.246Z" transform="translate(-517.633 -288.867)" fill="#dcc43e"/>
    <path id="Path_96" data-name="Path 96" d="M772.148,388.512c-2.237.141-4.009-2.613-5.187-5.323s-2.252-5.808-4.271-7.187a12.475,12.475,0,0,0-3.719-1.278,4.606,4.606,0,0,1-3.159-2.781l-1.419-.573a21.311,21.311,0,0,0-5.388,3.842,12.042,12.042,0,0,0-3.211,7.019c-.271,2.841.73,6.008,2.6,7.075,1.478.843,3.2.312,4.7,1.084,1.87.964,2.981,3.766,3.4,6.532s.314,5.641.615,8.438,1.13,5.708,2.845,7.142c2.147,1.794,5.3.3,6.259-2.962.472-1.6.456-3.409.81-5.072.622-2.928,2.3-5.1,3.633-7.5S773.033,391.3,772.148,388.512Z" transform="translate(-475.987 -265.985)" fill="#dcc43e"/>
    <path id="Path_97" data-name="Path 97" d="M753.222,346.465a5.961,5.961,0,0,1,.583.618,2.032,2.032,0,0,1-.036,2.1,1.952,1.952,0,0,0,1.4-.711,8.978,8.978,0,0,0,1.072-1.51,1.646,1.646,0,0,0,.316-1.317c-.106-.3-.355-.43-.531-.657a4.466,4.466,0,0,1-.49-1.424,2.568,2.568,0,0,0-1.861-1.962l.112.021a1.063,1.063,0,0,0-.5,1.133c.068.439.35.8.322,1.251-.04.644-.684.945-.723,1.589A1.229,1.229,0,0,0,753.222,346.465Z" transform="translate(-479.167 -252.712)" fill="#dcc43e"/>
    <path id="Path_98" data-name="Path 98" d="M746.577,330.478l.01,0a1.8,1.8,0,0,0,.191-.2Z" transform="translate(-476.355 -247.661)" fill="#6c63ff"/>
    <path id="Path_99" data-name="Path 99" d="M744.945,333.644a1.951,1.951,0,0,0,.607-1.934c-.163-.732-.738-1.224-1.268-1.089a1.292,1.292,0,0,1-1.2.354c-.328-.084-.688-.3-.973-.055a1.472,1.472,0,0,0-.331.647l-.316.97a.613.613,0,0,0-.037.367.311.311,0,0,0,.239.19l1.9.559A1.633,1.633,0,0,0,744.945,333.644Z" transform="translate(-474.052 -247.807)" fill="#dcc43e"/>
    <path id="Path_100" data-name="Path 100" d="M831.054,408.839l-.876-1.434a4.792,4.792,0,0,0-1.155-1.45,1.023,1.023,0,0,0-1.441.127h0l-.015.019.036.273a6.167,6.167,0,0,1,1.539,3c.067.489.043.994.1,1.485a1.732,1.732,0,0,0,.541,1.211c.46.307,1-.146,1.327-.7a2.4,2.4,0,0,0,.373-1.531A2.684,2.684,0,0,0,831.054,408.839Z" transform="translate(-512.466 -281.299)" fill="#dcc43e"/>
    <path id="Path_101" data-name="Path 101" d="M840.212,408.051a3.313,3.313,0,0,0-.107-1.335,2.931,2.931,0,0,1,.446-1.661,5.4,5.4,0,0,0,.695-1.523,1.274,1.274,0,0,0-.033-.746c-.1-.217-.331-.316-.465-.144l.287.185a2.616,2.616,0,0,0-1.166.056,1.444,1.444,0,0,0-.884,1,6.165,6.165,0,0,1-.232,1.034c-.172.352-.5.47-.712.779a1.862,1.862,0,0,0,.029,1.769,2.065,2.065,0,0,0,1.168.919C839.589,408.506,840.051,408.513,840.212,408.051Z" transform="translate(-517.043 -279.889)" fill="#dcc43e"/>
    <path id="Path_102" data-name="Path 102" d="M854.581,414.64a4.012,4.012,0,0,0,.505.928c.391.393.921.152,1.4.056a2.412,2.412,0,0,1,2.295.921,5.841,5.841,0,0,0-3.36-4.191,9.87,9.87,0,0,0-3.455-.54l-.2.051C852.273,413.352,853.879,413.319,854.581,414.64Z" transform="translate(-523.254 -284.016)" fill="#dcc43e"/>
    <path id="Path_103" data-name="Path 103" d="M794.492,422.325l0,.006.058-.112Z" transform="translate(-497.719 -288.658)" fill="#6c63ff"/>
    <path id="Path_104" data-name="Path 104" d="M791.265,424.811a10.992,10.992,0,0,0-.694,1.525,13.281,13.281,0,0,0-.5,2.61c-.063.5-.082,1.145.233,1.391a.447.447,0,0,0,.585-.079,2.316,2.316,0,0,0,.424-.63,14.515,14.515,0,0,0,1.431-3.4,5.911,5.911,0,0,0-.234-3.809Z" transform="translate(-495.729 -288.748)" fill="#dcc43e"/>
    <path id="Path_105" data-name="Path 105" d="M770.164,307.444a1.409,1.409,0,0,0,1.519.3,5.015,5.015,0,0,0,1.429-.944,3.362,3.362,0,0,0,.866-.945,1.916,1.916,0,0,0,.177-1.46,1.482,1.482,0,0,0-1.13-.894l-2.1-.624.507-.457c-.522-.28-1.1.24-1.426.883a4.755,4.755,0,0,0-.433,1.332A3.42,3.42,0,0,0,770.164,307.444Z" transform="translate(-486.568 -235.206)" fill="#dcc43e"/>
    <path id="Path_106" data-name="Path 106" d="M792.678,301.7a1.159,1.159,0,0,0,1.579.128,1.765,1.765,0,0,0,.7-1.258c.05-.552-.223-1.165-.613-1.212l.089-.516c-.75-.136-1.674-.163-2.076.749A2.139,2.139,0,0,0,792.678,301.7Z" transform="translate(-496.702 -233.613)" fill="#dcc43e"/>
    <ellipse id="Ellipse_31" data-name="Ellipse 31" cx="4.681" cy="6.277" rx="4.681" ry="6.277" transform="translate(240.282 92.679)" fill="#e6e6e6"/>
    <ellipse id="Ellipse_32" data-name="Ellipse 32" cx="4.187" cy="2.913" rx="4.187" ry="2.913" transform="translate(324.959 178.404) rotate(-14.913)" fill="#e6e6e6"/>
    <ellipse id="Ellipse_33" data-name="Ellipse 33" cx="4.187" cy="2.913" rx="4.187" ry="2.913" transform="translate(297.587 178.911) rotate(-14.913)" fill="#e6e6e6"/>
    <ellipse id="Ellipse_34" data-name="Ellipse 34" cx="4.187" cy="2.913" rx="4.187" ry="2.913" transform="translate(329.821 155.631) rotate(-14.913)" fill="#e6e6e6"/>
    <ellipse id="Ellipse_35" data-name="Ellipse 35" cx="1.841" cy="2.646" rx="1.841" ry="2.646" transform="translate(340.959 145.478) rotate(-7.068)" fill="#e6e6e6"/>
    <ellipse id="Ellipse_36" data-name="Ellipse 36" cx="1.841" cy="2.646" rx="1.841" ry="2.646" transform="translate(343.003 128.298) rotate(-7.068)" fill="#e6e6e6"/>
    <ellipse id="Ellipse_37" data-name="Ellipse 37" cx="1.841" cy="2.646" rx="1.841" ry="2.646" transform="translate(315.412 161.325) rotate(-7.068)" fill="#e6e6e6"/>
    <ellipse id="Ellipse_38" data-name="Ellipse 38" cx="1.841" cy="2.646" rx="1.841" ry="2.646" transform="translate(329.25 166.334) rotate(-7.068)" fill="#e6e6e6"/>
    <ellipse id="Ellipse_39" data-name="Ellipse 39" cx="1.841" cy="2.646" rx="1.841" ry="2.646" transform="translate(312.448 180.521) rotate(-7.068)" fill="#e6e6e6"/>
    <ellipse id="Ellipse_40" data-name="Ellipse 40" cx="4.187" cy="2.913" rx="4.187" ry="2.913" transform="translate(188.904 155.418) rotate(-14.913)" fill="#e6e6e6"/>
    <ellipse id="Ellipse_41" data-name="Ellipse 41" cx="4.187" cy="2.913" rx="4.187" ry="2.913" transform="translate(161.532 155.926) rotate(-14.913)" fill="#e6e6e6"/>
    <ellipse id="Ellipse_42" data-name="Ellipse 42" cx="4.187" cy="2.913" rx="4.187" ry="2.913" transform="translate(193.767 132.645) rotate(-14.913)" fill="#e6e6e6"/>
    <ellipse id="Ellipse_43" data-name="Ellipse 43" cx="1.841" cy="2.646" rx="1.841" ry="2.646" transform="translate(204.905 122.492) rotate(-7.068)" fill="#e6e6e6"/>
    <ellipse id="Ellipse_44" data-name="Ellipse 44" cx="1.841" cy="2.646" rx="1.841" ry="2.646" transform="translate(206.949 105.311) rotate(-7.068)" fill="#e6e6e6"/>
    <ellipse id="Ellipse_45" data-name="Ellipse 45" cx="1.841" cy="2.646" rx="1.841" ry="2.646" transform="translate(179.358 138.339) rotate(-7.068)" fill="#e6e6e6"/>
    <ellipse id="Ellipse_46" data-name="Ellipse 46" cx="1.841" cy="2.646" rx="1.841" ry="2.646" transform="translate(193.196 143.348) rotate(-7.068)" fill="#e6e6e6"/>
    <ellipse id="Ellipse_47" data-name="Ellipse 47" cx="1.841" cy="2.646" rx="1.841" ry="2.646" transform="translate(176.394 157.535) rotate(-7.068)" fill="#e6e6e6"/>
    <ellipse id="Ellipse_48" data-name="Ellipse 48" cx="4.187" cy="2.913" rx="4.187" ry="2.913" transform="translate(355.2 50.17) rotate(-14.913)" fill="#e6e6e6"/>
    <ellipse id="Ellipse_49" data-name="Ellipse 49" cx="4.187" cy="2.913" rx="4.187" ry="2.913" transform="translate(327.828 50.677) rotate(-14.913)" fill="#e6e6e6"/>
    <ellipse id="Ellipse_50" data-name="Ellipse 50" cx="4.187" cy="2.913" rx="4.187" ry="2.913" transform="translate(360.063 27.397) rotate(-14.913)" fill="#e6e6e6"/>
    <ellipse id="Ellipse_51" data-name="Ellipse 51" cx="1.841" cy="2.646" rx="1.841" ry="2.646" transform="translate(371.201 17.245) rotate(-7.068)" fill="#e6e6e6"/>
    <ellipse id="Ellipse_52" data-name="Ellipse 52" cx="1.841" cy="2.646" rx="1.841" ry="2.646" transform="translate(373.245 0.064) rotate(-7.068)" fill="#e6e6e6"/>
    <ellipse id="Ellipse_53" data-name="Ellipse 53" cx="1.841" cy="2.646" rx="1.841" ry="2.646" transform="translate(345.654 33.092) rotate(-7.068)" fill="#e6e6e6"/>
    <ellipse id="Ellipse_54" data-name="Ellipse 54" cx="1.841" cy="2.646" rx="1.841" ry="2.646" transform="translate(359.492 38.1) rotate(-7.068)" fill="#e6e6e6"/>
    <ellipse id="Ellipse_55" data-name="Ellipse 55" cx="1.841" cy="2.646" rx="1.841" ry="2.646" transform="translate(342.69 52.287) rotate(-7.068)" fill="#e6e6e6"/>
    <path id="Path_107" data-name="Path 107" d="M587.435,377.925c-4.478,0-7.39-1.113-8.678-3.325-2.541-4.362,1.715-12.016,12.649-22.75l.918.936c-10.157,9.971-14.573,17.483-12.435,21.154,1.353,2.322,5.38,3.154,11.647,2.406,6.222-.743,14.467-2.957,24.507-6.58,20.669-7.46,46.6-20.042,73.019-35.431S739.216,302.6,755.9,288.3c3.2-2.747,6.113-5.39,8.645-7.855a86.087,86.087,0,0,0,9.168-10.218c3.743-5.082,5.006-9,3.653-11.318-2.26-3.879-11.752-3.514-26.729,1.028l-.38-1.255c16.069-4.873,25.572-5.019,28.243-.433,1.66,2.849.4,7.141-3.73,12.755a87.377,87.377,0,0,1-9.309,10.379c-2.551,2.484-5.48,5.145-8.706,7.911-16.744,14.35-40.55,30.75-67.033,46.176S637.23,363.514,616.489,371c-10.133,3.657-18.476,5.894-24.8,6.648A36.145,36.145,0,0,1,587.435,377.925Z" transform="translate(-401.21 -214.06)" fill="#3f3d56"/>
  </g>
</svg>
