<svg xmlns="http://www.w3.org/2000/svg" width="409" height="293" viewBox="0 0 409 293">
  <g id="Group_65" data-name="Group 65" transform="translate(-1427 -1489)">
    <rect id="Rectangle_130" data-name="Rectangle 130" width="409" height="293" transform="translate(1427 1489)" fill="#fff"/>
    <g id="Group_64" data-name="Group 64" transform="translate(1443 1489)">
      <circle id="Ellipse_83" data-name="Ellipse 83" cx="15.372" cy="15.372" r="15.372" transform="translate(199.453 112.525)" fill="#e6e6e6"/>
      <path id="Path_254" data-name="Path 254" d="M690.277,385.2l-16.064-16.064a17.013,17.013,0,1,0-5.11,5.11l16.064,16.064a3.613,3.613,0,1,0,5.11-5.11ZM668.5,368.539a12.167,12.167,0,1,1,3.564-8.6A12.167,12.167,0,0,1,668.5,368.539Z" transform="translate(-437.78 -237.552)" fill="#3f3d56"/>
      <path id="Path_255" data-name="Path 255" d="M507.264,239.838c41.081,45.431-78.005,110.9-174.23,110.9s-162.8-50.73-174.23-110.9C131.083,93.937,395,1.2,333.034,128.934,242.718,315.117,474.912,204.06,507.264,239.838Z" transform="translate(-138.324 -68.493)" fill="#e6e6e6"/>
      <path id="Path_256" data-name="Path 256" d="M459.264,267.837c41.081,45.431-78.005,110.9-174.23,110.9s-162.8-50.73-174.23-110.9C83.083,121.937,347,29.2,285.034,156.934,194.718,343.118,426.912,232.06,459.264,267.837Z" transform="translate(-108.756 -85.741)" fill="#3f3d56"/>
      <path id="Path_257" data-name="Path 257" d="M176.722,228.457c-28.826-1.269-51.177-7.487-50.883-14.156.176-4,8.334-7.213,22.382-8.82a.384.384,0,0,1,.087.763c-13.233,1.514-21.549,4.614-21.7,8.091-.266,6.031,22.7,12.146,50.15,13.355s50.864-2.865,51.129-8.9c.154-3.491-7.909-7.321-21.043-9.995a.384.384,0,1,1,.153-.753c13.94,2.838,21.833,6.768,21.657,10.781C228.359,225.5,205.548,229.726,176.722,228.457Z" transform="translate(-119.277 -152.875)" fill="#dcc43e"/>
      <path id="Path_258" data-name="Path 258" d="M191.679,268.227a29.562,29.562,0,0,0,51.086,2.12,465.418,465.418,0,0,1-51.086-2.12Z" transform="translate(-159.837 -191.528)" fill="#dcc43e"/>
      <path id="Path_259" data-name="Path 259" d="M240.591,190.282a29.567,29.567,0,1,0-56.736-2.191,219.739,219.739,0,0,0,56.736,2.191Z" transform="translate(-154.473 -119.541)" fill="#dcc43e"/>
      <circle id="Ellipse_84" data-name="Ellipse 84" cx="3.456" cy="3.456" r="3.456" transform="translate(61.377 44.007)" fill="#fff"/>
      <circle id="Ellipse_85" data-name="Ellipse 85" cx="5.76" cy="5.76" r="5.76" transform="translate(41.286 52.836)" fill="#fff"/>
      <circle id="Ellipse_86" data-name="Ellipse 86" cx="3.84" cy="3.84" r="3.84" transform="translate(130.141 51.033)" fill="#dcc43e"/>
      <circle id="Ellipse_87" data-name="Ellipse 87" cx="2.304" cy="2.304" r="2.304" transform="translate(44.892 171.61)" fill="#e6e6e6"/>
      <circle id="Ellipse_88" data-name="Ellipse 88" cx="2.304" cy="2.304" r="2.304" transform="translate(206.173 250.715)" fill="#e6e6e6"/>
      <circle id="Ellipse_89" data-name="Ellipse 89" cx="1.152" cy="1.152" r="1.152" transform="translate(57.18 129.37)" fill="#e6e6e6"/>
      <circle id="Ellipse_90" data-name="Ellipse 90" cx="1.152" cy="1.152" r="1.152" transform="translate(152.413 215.387)" fill="#e6e6e6"/>
      <circle id="Ellipse_91" data-name="Ellipse 91" cx="1.152" cy="1.152" r="1.152" transform="translate(325.598 204.251)" fill="#e6e6e6"/>
      <circle id="Ellipse_92" data-name="Ellipse 92" cx="1.152" cy="1.152" r="1.152" transform="translate(271.454 238.427)" fill="#e6e6e6"/>
      <circle id="Ellipse_93" data-name="Ellipse 93" cx="1.152" cy="1.152" r="1.152" transform="translate(215.005 196.955)" fill="#e6e6e6"/>
      <circle id="Ellipse_94" data-name="Ellipse 94" cx="1.152" cy="1.152" r="1.152" transform="translate(142.045 83.29)" fill="#e6e6e6"/>
      <circle id="Ellipse_95" data-name="Ellipse 95" cx="1.152" cy="1.152" r="1.152" transform="translate(151.261 26.457)" fill="#e6e6e6"/>
      <circle id="Ellipse_96" data-name="Ellipse 96" cx="1.152" cy="1.152" r="1.152" transform="translate(145.885 265.691)" fill="#e6e6e6"/>
      <circle id="Ellipse_97" data-name="Ellipse 97" cx="1.152" cy="1.152" r="1.152" transform="translate(89.052 241.499)" fill="#e6e6e6"/>
      <circle id="Ellipse_98" data-name="Ellipse 98" cx="1.152" cy="1.152" r="1.152" transform="translate(269.15 200.027)" fill="#e6e6e6"/>
      <circle id="Ellipse_99" data-name="Ellipse 99" cx="3.456" cy="3.456" r="3.456" transform="translate(53.52 82.867)" fill="#fff"/>
      <path id="Path_260" data-name="Path 260" d="M390.438,396.279c0,10.322-15.959,34.374-20.623,41.183a1.533,1.533,0,0,1-2.531,0c-4.664-6.809-20.623-30.861-20.623-41.183a21.888,21.888,0,0,1,43.776,0Z" transform="translate(-255.305 -256.925)" fill="#fff"/>
      <circle id="Ellipse_100" data-name="Ellipse 100" cx="11.136" cy="11.136" r="11.136" transform="translate(102.108 126.682)" fill="#dcc43e"/>
      <ellipse id="Ellipse_101" data-name="Ellipse 101" cx="12.864" cy="2.496" rx="12.864" ry="2.496" transform="translate(100.188 188.123)" fill="#fff"/>
      <path id="Path_261" data-name="Path 261" d="M881.6,382.947a4.045,4.045,0,0,0-.246.587L863,388.632l-3.307-3.236-5.536,4.352,5.3,6.3a3.072,3.072,0,0,0,3.592.833l19.821-8.749a4.031,4.031,0,1,0-1.272-5.182Z" transform="translate(-567.922 -260.865)" fill="#ffb8b8"/>
      <path id="Path_262" data-name="Path 262" d="M851.862,385.21l-6.887,5.361a1.728,1.728,0,0,1-2.566-.513l-4.28-7.575a4.8,4.8,0,1,1,7.591-5.873l6.274,5.988a1.728,1.728,0,0,1-.132,2.613Z" transform="translate(-557.429 -257.144)" fill="#dcc43e"/>
      <path id="Path_263" data-name="Path 263" d="M916.313,379.638l6.984,3.142a1.209,1.209,0,0,1,.607,1.6l-.827,1.838a.4.4,0,0,1,.2.533l-.331.735a.4.4,0,0,1-.533.2l-.331.735a.4.4,0,0,1,.2.533l-.331.735a.4.4,0,0,1-.533.2l-4.465,9.925a1.209,1.209,0,0,1-1.6.607l-6.984-3.142a1.209,1.209,0,0,1-.607-1.6l6.946-15.439a1.209,1.209,0,0,1,1.6-.607Z" transform="translate(-600.879 -260.092)" fill="#3f3d56"/>
      <path id="Path_264" data-name="Path 264" d="M911.727,398.873l5.6,2.523a1.165,1.165,0,0,0,1.536-.58l2.588-5.756.9-2,2.342-5.208a1.162,1.162,0,0,0-.58-1.532l-1.761-.794-3.845-1.729a1.16,1.16,0,0,0-1.532.584l-2.265,5.035-2.58,5.732-.983,2.189a1.16,1.16,0,0,0,.58,1.532Z" transform="translate(-602.963 -262.66)" fill="#f2f2f2"/>
      <path id="Path_265" data-name="Path 265" d="M773.576,511.313h4.708l2.24-18.159h-6.949Z" transform="translate(-476.52 -303.781)" fill="#ffb8b8"/>
      <path id="Path_266" data-name="Path 266" d="M879.207,604.933h9.272a5.908,5.908,0,0,1,5.909,5.909v.192h-15.18Z" transform="translate(-583.351 -398.938)" fill="#2f2e41"/>
      <path id="Path_267" data-name="Path 267" d="M805.576,508.313h4.708l2.24-18.159h-6.948Z" transform="translate(-496.231 -301.933)" fill="#ffb8b8"/>
      <path id="Path_268" data-name="Path 268" d="M911.207,601.933h9.272a5.908,5.908,0,0,1,5.908,5.909v.192h-15.18Z" transform="translate(-603.063 -397.09)" fill="#2f2e41"/>
      <path id="Path_269" data-name="Path 269" d="M825.854,469.752a15.134,15.134,0,0,0,14.17,10.3l.238,0a21.3,21.3,0,0,0,8.083-1.839,68.856,68.856,0,0,0,12.25-6.762l-2.388,22.96-.968,9.308a1.733,1.733,0,0,0,1.72,1.909h5.964a1.73,1.73,0,0,0,1.674-1.29l9.846-37.5a7.308,7.308,0,0,0-7.569-9.151l-20.452,1.4,1.428-5.714-18.255-1.213-.054.038c-.438.319-.864.653-1.271,1a15.464,15.464,0,0,0-2.684,2.941,14.779,14.779,0,0,0-1.732,13.609Z" transform="translate(-549.915 -304.831)" fill="#2f2e41"/>
      <path id="Path_270" data-name="Path 270" d="M825.854,476.14a15.134,15.134,0,0,0,14.17,10.3,75.326,75.326,0,0,0,8.667-5.142l-.346,3.306-3.011,28.962a1.734,1.734,0,0,0,1.72,1.909h5.963a1.73,1.73,0,0,0,1.674-1.29l3.514-13.382,6.332-24.115a7.308,7.308,0,0,0-7.569-9.151l-20.452,1.4,1.428-5.714-10.36-.687a14.779,14.779,0,0,0-1.732,13.609Z" transform="translate(-549.915 -311.219)" fill="#2f2e41"/>
      <path id="Path_271" data-name="Path 271" d="M832.758,396.026l-.137-.016-3.185-15.662c-.027-.136-2.631-13.645,5.352-20.707l.139-.967a1.728,1.728,0,0,1,2.222-1.4l7.521,2.333a1.724,1.724,0,0,1,1.159,2.09l-.731,2.781c1.014,1.19,12.947,15.557,8.79,26.625l-1.862,7.278Z" transform="translate(-552.429 -246.33)" fill="#dcc43e"/>
      <path id="Path_272" data-name="Path 272" d="M876.646,412.013a4.038,4.038,0,0,0-.51.38l-18.393-4.937-1.2-4.467-6.979.933,1.36,8.116a3.072,3.072,0,0,0,2.669,2.543l21.516,2.542a4.031,4.031,0,1,0,1.539-5.109Z" transform="translate(-565.089 -274.541)" fill="#ffb8b8"/>
      <path id="Path_273" data-name="Path 273" d="M852.01,390.808l-8.656,1.115a1.728,1.728,0,0,1-1.948-1.747l.165-8.7a4.8,4.8,0,0,1,9.523-1.2l2.359,8.346a1.728,1.728,0,0,1-1.442,2.183Z" transform="translate(-560.066 -257.964)" fill="#dcc43e"/>
      <circle id="Ellipse_102" data-name="Ellipse 102" cx="9.432" cy="9.432" r="9.432" transform="translate(280.077 89.95)" fill="#ffb8b8"/>
      <path id="Path_274" data-name="Path 274" d="M828.843,306.98l-1.181-2.15a25.763,25.763,0,0,0,1.714,16.655l-15.334-7.143.146-2.534-1.517,1.722-2.18-1.2-.288-1.644-1.646.408,6.007-10.9c5.83-10.373,14.306-6.413,14.306-6.413,13.484-.641,11.838,12.663,11.838,12.663Z" transform="translate(-539.831 -206.811)" fill="#2f2e41"/>
      <ellipse id="Ellipse_103" data-name="Ellipse 103" cx="4.677" cy="18.24" rx="4.677" ry="18.24" transform="matrix(0.842, -0.54, 0.54, 0.842, 158.023, 142.265)" fill="#3f3d56"/>
    </g>
  </g>
</svg>
