<svg xmlns="http://www.w3.org/2000/svg" width="373.767" height="277.967" viewBox="0 0 373.767 277.967">
  <g id="Group_25" data-name="Group 25" transform="translate(0 0)">
    <path id="Path_27" data-name="Path 27" d="M723.736,363.19a7.02,7.02,0,0,1-6.983,7.056H409.523a7.02,7.02,0,0,1-6.983-7.056V153.331a7.02,7.02,0,0,1,6.983-7.056H716.753a7.019,7.019,0,0,1,6.983,7.056h0Z" transform="translate(-349.969 -146.275)" fill="#e6e6e6"/>
    <path id="Path_28" data-name="Path 28" d="M724.657,364.217a6.823,6.823,0,0,1-6.823,6.823H417.743a6.823,6.823,0,0,1-6.823-6.823V161.328a6.823,6.823,0,0,1,6.823-6.823H717.848a6.823,6.823,0,0,1,6.809,6.823Z" transform="translate(-354.514 -150.739)" fill="#fff"/>
    <path id="c6fe725a-3b03-4a96-90af-cfbd2676500a" d="M345.63,27.48H627.61a4.05,4.05,0,0,1,4.05,4.05V221.56a4.05,4.05,0,0,1-4.05,4.05H345.63a4.05,4.05,0,0,1-4.05-4.05V31.53A4.05,4.05,0,0,1,345.63,27.48Z" transform="translate(-273.186 -14.905)" fill="#e6e6e6"/>
    <path id="Path_29" data-name="Path 29" d="M353.43,37.44H627.965a4.05,4.05,0,0,1,4.05,4.05V221.38a4.05,4.05,0,0,1-4.05,4.05H353.43a4.05,4.05,0,0,1-4.05-4.05V41.49a4.05,4.05,0,0,1,4.05-4.05Z" transform="translate(-277.416 -20.308)" fill="#fff"/>
    <path id="Path_30" data-name="Path 30" d="M845.351,383.388a7.719,7.719,0,0,1-3.136-.668,3.8,3.8,0,0,1-.654-.371L821.609,368.3h0a7.719,7.719,0,0,1-3.276-6.311V342.84a7.718,7.718,0,0,1,3.275-6.31l19.953-14.045a3.813,3.813,0,0,1,.654-.372,7.719,7.719,0,0,1,10.855,7.054v46.5a7.719,7.719,0,0,1-7.719,7.719Z" transform="translate(-555.689 -241.289)" fill="#3f3d56"/>
    <path id="Path_31" data-name="Path 31" d="M689.458,382.687H633.81c-11.353-.009-20.554-7.348-20.565-16.4V329.617c.012-9.056,9.212-16.394,20.565-16.4H689.6c11.272.011,20.407,7.3,20.42,16.288v36.783C710.011,375.339,700.811,382.678,689.458,382.687Z" transform="translate(-433.419 -236.823)" fill="#3f3d56"/>
    <circle id="Ellipse_22" data-name="Ellipse 22" cx="16.55" cy="16.55" r="16.55" transform="translate(307.778 160.455)" fill="#e6e6e6"/>
    <path id="Path_32" data-name="Path 32" d="M998.958,523.358l-13.192-7.617a.343.343,0,0,0-.514.3v15.233a.343.343,0,0,0,.514.3l13.192-7.616a.343.343,0,0,0,0-.593l-13.192-7.616a.343.343,0,0,0-.514.3v15.233a.343.343,0,0,0,.514.3l13.192-7.616a.343.343,0,0,0,0-.593Z" transform="translate(-666.034 -346.65)" fill="#fff"/>
    <path id="Path_33" data-name="Path 33" d="M538.6,418.19c.018,3.877-2.815,7.036-6.328,7.056h-278.4c-3.513-.02-6.346-3.179-6.328-7.056V208.331c-.018-3.877,2.815-7.036,6.328-7.056h278.4c3.513.02,6.346,3.179,6.328,7.056h0Z" transform="translate(-206.589 -176.107)" fill="#e6e6e6"/>
    <path id="Path_34" data-name="Path 34" d="M539.518,419.217c0,3.768-2.761,6.823-6.167,6.823H262.087c-3.406,0-6.167-3.055-6.167-6.823V216.328c0-3.768,2.761-6.823,6.167-6.823H533.363c3.4.008,6.155,3.06,6.155,6.823Z" transform="translate(-211.19 -180.571)" fill="#fff"/>
    <path id="c6fe725a-3b03-4a96-90af-cfbd2676500a-2" data-name="c6fe725a-3b03-4a96-90af-cfbd2676500a" d="M189.4,82.48H385.926c1.559,0,2.822,1.813,2.822,4.05V276.56c0,2.237-1.264,4.05-2.822,4.05H189.4c-1.559,0-2.822-1.813-2.822-4.05V86.53c0-2.237,1.264-4.05,2.822-4.05Z" transform="translate(-101.202 -44.737)" fill="#e6e6e6"/>
    <path id="Path_35" data-name="Path 35" d="M198,92.44H443.257a3.852,3.852,0,0,1,3.618,4.05V276.38a3.852,3.852,0,0,1-3.618,4.05H198a3.852,3.852,0,0,1-3.618-4.05V96.49A3.852,3.852,0,0,1,198,92.44Z" transform="translate(-134.133 -50.14)" fill="#fff"/>
    <path id="Path_36" data-name="Path 36" d="M690.351,438.388a7.721,7.721,0,0,1-3.136-.668,3.812,3.812,0,0,1-.654-.372L666.609,423.3h0a7.719,7.719,0,0,1-3.276-6.311V397.84a7.719,7.719,0,0,1,3.275-6.31l19.953-14.045a3.81,3.81,0,0,1,.654-.371,7.719,7.719,0,0,1,10.855,7.054v46.5a7.719,7.719,0,0,1-7.719,7.719Z" transform="translate(-457.012 -271.121)" fill="#3f3d56"/>
    <path id="Path_37" data-name="Path 37" d="M534.458,437.687H478.81c-11.353-.009-20.554-7.348-20.565-16.4V384.617c.012-9.056,9.212-16.394,20.565-16.4H534.6c11.272.011,20.407,7.3,20.42,16.288v36.783C555.011,430.339,545.811,437.678,534.458,437.687Z" transform="translate(-332.258 -266.655)" fill="#3f3d56"/>
    <circle id="Ellipse_23" data-name="Ellipse 23" cx="16.55" cy="16.55" r="16.55" transform="translate(258.146 185.622)" fill="#e6e6e6"/>
    <path id="Path_38" data-name="Path 38" d="M843.958,578.358l-13.192-7.616a.343.343,0,0,0-.514.3v15.233a.343.343,0,0,0,.514.3l13.192-7.616a.343.343,0,0,0,0-.593l-13.192-7.616a.343.343,0,0,0-.514.3v15.233a.343.343,0,0,0,.514.3l13.192-7.617a.343.343,0,0,0,0-.593Z" transform="translate(-560.053 -376.482)" fill="#fff"/>
    <path id="Path_39" data-name="Path 39" d="M416.736,481.189a7.019,7.019,0,0,1-6.983,7.056H102.523a7.019,7.019,0,0,1-6.983-7.056V271.331a7.019,7.019,0,0,1,6.983-7.056H409.753a7.019,7.019,0,0,1,6.983,7.056h0Z" transform="translate(-95.54 -210.279)" fill="#e6e6e6"/>
    <path id="Path_40" data-name="Path 40" d="M417.657,482.217a6.823,6.823,0,0,1-6.823,6.823H110.743a6.823,6.823,0,0,1-6.823-6.823V279.328a6.823,6.823,0,0,1,6.823-6.823H410.848a6.823,6.823,0,0,1,6.809,6.823Z" transform="translate(-100.085 -214.743)" fill="#fff"/>
    <path id="c6fe725a-3b03-4a96-90af-cfbd2676500a-3" data-name="c6fe725a-3b03-4a96-90af-cfbd2676500a" d="M38.63,145.48H320.61a4.05,4.05,0,0,1,4.05,4.05V339.56a4.05,4.05,0,0,1-4.05,4.05H38.63a4.05,4.05,0,0,1-4.05-4.05V149.53a4.05,4.05,0,0,1,4.05-4.05Z" transform="translate(-18.756 -78.909)" fill="#e6e6e6"/>
    <path id="Path_41" data-name="Path 41" d="M46.43,155.44H320.965a4.05,4.05,0,0,1,4.05,4.05V339.38a4.05,4.05,0,0,1-4.05,4.05H46.43a4.05,4.05,0,0,1-4.05-4.05V159.49a4.05,4.05,0,0,1,4.05-4.05Z" transform="translate(-22.987 -84.311)" fill="#fff"/>
    <path id="Path_42" data-name="Path 42" d="M538.351,501.388a7.718,7.718,0,0,1-3.136-.668,3.813,3.813,0,0,1-.654-.372L514.609,486.3h0a7.72,7.72,0,0,1-3.276-6.311V460.84a7.719,7.719,0,0,1,3.275-6.31l19.953-14.045a3.8,3.8,0,0,1,.654-.371,7.719,7.719,0,0,1,10.855,7.053v46.5a7.719,7.719,0,0,1-7.719,7.719Z" transform="translate(-360.245 -305.293)" fill="#dcc43e"/>
    <path id="Path_43" data-name="Path 43" d="M382.458,500.687H326.81c-11.353-.009-20.554-7.348-20.565-16.4V447.617c.012-9.056,9.212-16.394,20.565-16.4H382.6c11.272.011,20.407,7.3,20.42,16.288v36.783C403.011,493.339,393.811,500.678,382.458,500.687Z" transform="translate(-233.056 -300.826)" fill="#dcc43e"/>
    <circle id="Ellipse_24" data-name="Ellipse 24" cx="16.55" cy="16.55" r="16.55" transform="translate(202.858 214.451)" fill="#3f3d56"/>
    <path id="Path_44" data-name="Path 44" d="M691.958,641.358l-13.192-7.617a.343.343,0,0,0-.514.3v15.233a.343.343,0,0,0,.514.3l13.192-7.616a.343.343,0,0,0,0-.593l-13.192-7.617a.343.343,0,0,0-.514.3v15.233a.343.343,0,0,0,.514.3l13.192-7.617a.343.343,0,0,0,0-.593Z" transform="translate(-463.953 -410.654)" fill="#fff"/>
  </g>
</svg>
