<svg id="Group_44" data-name="Group 44" xmlns="http://www.w3.org/2000/svg" width="319.715" height="317.01" viewBox="0 0 319.715 317.01">
  <path id="Path_145" data-name="Path 145" d="M463.813,105.669v200.3H593.328V100.823A158.927,158.927,0,0,0,463.813,105.669Z" transform="translate(-363.806 -89.332)" fill="#fff"/>
  <path id="Path_146" data-name="Path 146" d="M434.9,117.177v192.56h44.035l-.787-10.9-4.33-119.331h87.193l-4.33,119.331-.787,10.9h44.528V120.664c-.817-.6-1.638-1.2-2.47-1.781-.162-.113.551-3.306.386-3.419a143.39,143.39,0,0,0-30.85-16.389l-3.225,35.466H549.156V96.726c-.986-.245-1.973-.474-2.967-.689h0a38.5,38.5,0,0,1-38.5,38.5h-18.55v-39.5c-.99.181-1.98.373-2.963.576v38.926h-15.61L468.1,100.574a143.158,143.158,0,0,0-30.236,14.657c-.328.211-.659.418-.987.636Q435.882,116.511,434.9,117.177Zm114.256,20.331H564.05l-2.323,32.115H549.156Zm-60.021,0h57.054v32.115h-22.1v-.636a2.326,2.326,0,0,0-2.327-2.327h-9.179a2.327,2.327,0,0,0-2.33,2.327v.636H489.134ZM473.1,169.623l-2.323-32.115h15.395v32.115Z" transform="translate(-347.6 -92.531)" fill="#f2f2f2"/>
  <path id="Path_147" data-name="Path 147" d="M283.4,570.1c0,.011.008.019.011.03.026.079.053.151.083.23v0q1.926,5.41,4.232,10.64l290.37-.316q2.338-5.337,4.292-10.87a.069.069,0,0,0,.008-.026Z" transform="translate(-262.681 -358.64)" fill="#ccc"/>
  <path id="Path_148" data-name="Path 148" d="M494.927,434.7a6.784,6.784,0,0,1-9.314,4.632l-16.366,17.7-3-12.164,16-14.945a6.821,6.821,0,0,1,12.677,4.775Z" transform="translate(-365.172 -278.179)" fill="#ffb6b6"/>
  <path id="Path_149" data-name="Path 149" d="M395.926,470.863,373.69,495.821l-.181-.034c-.075-.011-1.762-.312-4.435-.8-9.668-1.77-32.221-5.99-37.815-7.944a20,20,0,0,1-8.411-5.5,27.4,27.4,0,0,1,1.815-6.675,7.26,7.26,0,0,0,.384-3.185,10.07,10.07,0,0,1,4.958-1.755,72.019,72.019,0,0,1,32.6,5.23l5.866,2.425.241-.177,19.811-14.54.136-.1,6.815,7.594Z" transform="translate(-284.792 -298.65)" fill="#dcc43e"/>
  <path id="Path_150" data-name="Path 150" d="M571.89,783.554c-.3-.023-.591-.049-.889-.075q-5.6-.469-11.08-1.325l-4.013-9.345-1.924-4.48,7.263-3.121,4.721-2.026,2.244,7.711.93,3.2,2.2,7.56Z" transform="translate(-414.349 -467.04)" fill="#ffb6b6"/>
  <path id="Path_151" data-name="Path 151" d="M409.6,710.592v13.125q3.3,2.44,6.739,4.706V710.592Z" transform="translate(-333.418 -437.563)" fill="#cacaca"/>
  <path id="Path_152" data-name="Path 152" d="M355.73,691.677q2.841,3.151,5.851,6.141A158.559,158.559,0,0,0,376.6,710.995H406.64a5.6,5.6,0,0,0,4.213-1.909l0-.011a5.545,5.545,0,0,0,1.265-2.485l0-.008a5.761,5.761,0,0,0,.128-1.2v-8.083a5.621,5.621,0,0,0-5.614-5.617Z" transform="translate(-303.224 -426.96)" fill="#3f3d56"/>
  <path id="Path_153" data-name="Path 153" d="M327.562,608.888l3.257,13.953a29.332,29.332,0,0,0-.316,6.114q2.315,3.106,4.778,6.088,2.27,2.75,4.661,5.4,2.841,3.151,5.851,6.141a62.087,62.087,0,0,0,17.823,2.357c2.221.019,4.477-.041,6.739-.162,9.175-.482,4.149-1.954,11.75-3.483,2.011-.4,3.9-.806,5.64-1.2,3.294-.742,6.05-1.434,8.046-1.962,2.248-.587,10.36-4.64,10.36-4.64l6.4,13.93L418.2,664.6l7.437,16.646q1.434.13,2.873.218,1.525.107,3.053.173c.806.041,1.608.072,2.417.094l.275.087.226-.072,3.629-1.156,1.224-.388,4.4-1.4s-.983-3.095-2.7-8.257c-.633-1.894-5.113-15.9-9.8-28.121-1.389-3.63-2.827-7.312-4.307-10.975-1.212-3.008-2.447-6.005-3.7-8.961-2.172-5.124-12.669-7.888-25.03-9.337-.629-.072-1.261-.143-1.9-.211-6.3-.663-12.982-1.005-19.232-1.163-3.129-.079,8.159-.109,5.35-.113q-1.361,0-2.647.008h0c-2.315.011-4.446.045-6.321.083-.365.008-.719.019-1.065.026h0c-.233,0-.463.011-.689.015-4.1.105-6.615.233-6.615.233l-.975-7.651-.2-1.544-.188-1.468v0l-.023-.185-.154,0-2.711-.053-22.786-.444-9.705-.411Z" transform="translate(-287.435 -375.722)" fill="#2f2e41"/>
  <path id="Path_154" data-name="Path 154" d="M448.854,676.435c-2.745,4.691-4.883,13.584-7.7,17.989-5.4,8.456-8.558,13.068-12.3,18.271q-5.794-3.157-11.284-6.792-2.931-1.931-5.772-4l2.24-5.109,1.273-2.5,5.715-11.254,6.408-12.616,2.229,1.039Z" transform="translate(-334.656 -415.045)" fill="#2f2e41"/>
  <path id="Path_155" data-name="Path 155" d="M904.039,532.891a2.4,2.4,0,0,0-1.835-3.112,2.193,2.193,0,0,0-.378-.047l-15.342-.4a2.465,2.465,0,0,0-1.835.792,3.083,3.083,0,0,0-.654-.068,3.637,3.637,0,1,0-.183,7.273,3.688,3.688,0,0,0,1.6-.328L886.82,552.1a2.383,2.383,0,0,0,2.252,1.753l9.974.257a2.416,2.416,0,0,0,2.328-1.631Zm-20.2,3.4a2.6,2.6,0,0,1,.122-5.2c.049,0,.092.023.14.023a2.449,2.449,0,0,0,.008,1.271l1,3.6a2.449,2.449,0,0,1-1.274.312Z" transform="translate(-597.238 -335.965)" fill="#ccc"/>
  <path id="Path_156" data-name="Path 156" d="M909.249,529.779c-.327,1.869-4,3.183-8.421,2.954-4.063-.187-7.386-1.614-7.995-3.305a2.269,2.269,0,0,1,.694-.093l15.342.4A2.211,2.211,0,0,1,909.249,529.779Z" transform="translate(-604.282 -335.964)" fill="#fff"/>
  <path id="Path_157" data-name="Path 157" d="M711.619,483.745v38.614H738.67V483.745a1.3,1.3,0,0,0-.915-1.242,1.2,1.2,0,0,0-.388-.06H712.925A1.3,1.3,0,0,0,711.619,483.745Zm10.557,13.268a2.888,2.888,0,1,1,5.776,0v4.48a2.888,2.888,0,1,1-5.775,0Z" transform="translate(-502.707 -309.679)" fill="#ccc"/>
  <path id="Path_158" data-name="Path 158" d="M711.431,570.459v3.724a.733.733,0,0,0,.727.73h25.764a.73.73,0,0,0,.727-.73v-3.724Z" transform="translate(-502.602 -359.015)" fill="#3f3d56"/>
  <path id="Path_159" data-name="Path 159" d="M614.787,348.713v70.5a3.391,3.391,0,0,0,3.388,3.388H722.653a3.391,3.391,0,0,0,3.388-3.389v-70.5a3.393,3.393,0,0,0-3.388-3.385H618.175A3.393,3.393,0,0,0,614.787,348.713Z" transform="translate(-448.431 -232.824)" fill="#ccc"/>
  <path id="Path_160" data-name="Path 160" d="M620.364,352.711v68.756a1.814,1.814,0,0,0,1.811,1.811H724.91a1.814,1.814,0,0,0,1.811-1.811V352.711a1.815,1.815,0,0,0-1.811-1.815H622.175A1.815,1.815,0,0,0,620.364,352.711Z" transform="translate(-451.557 -235.945)" fill="#fff"/>
  <path id="Path_161" data-name="Path 161" d="M668.424,571.938a1.111,1.111,0,0,0,.874.418h61.121a1.125,1.125,0,0,0,1.1-1.355l-.949-4.507a1.127,1.127,0,0,0-.7-.817,1.09,1.09,0,0,0-.4-.075H670.243a1.09,1.09,0,0,0-.4.075,1.127,1.127,0,0,0-.7.817L668.195,571A1.124,1.124,0,0,0,668.424,571.938Z" transform="translate(-478.354 -356.292)" fill="#f2f2f2"/>
  <path id="Path_162" data-name="Path 162" d="M727.571,371.473H631.443a.382.382,0,1,1,0-.765h96.129a.382.382,0,1,1,0,.765Z" transform="translate(-457.552 -247.05)" fill="#3f3d56"/>
  <ellipse id="Ellipse_64" data-name="Ellipse 64" cx="2.24" cy="2.29" rx="2.24" ry="2.29" transform="translate(178.194 117.126)" fill="#3f3d56"/>
  <ellipse id="Ellipse_65" data-name="Ellipse 65" cx="2.24" cy="2.29" rx="2.24" ry="2.29" transform="translate(185.933 117.126)" fill="#3f3d56"/>
  <ellipse id="Ellipse_66" data-name="Ellipse 66" cx="2.24" cy="2.29" rx="2.24" ry="2.29" transform="translate(193.672 117.126)" fill="#3f3d56"/>
  <path id="Path_163" data-name="Path 163" d="M832.531,357.133h-5.5a.416.416,0,0,0,0,.832h5.5a.416.416,0,1,0,0-.832Z" transform="translate(-567.172 -239.441)" fill="#3f3d56"/>
  <path id="Path_164" data-name="Path 164" d="M832.531,360.688h-5.5a.416.416,0,0,0,0,.832h5.5a.416.416,0,1,0,0-.832Z" transform="translate(-567.172 -241.434)" fill="#3f3d56"/>
  <path id="Path_165" data-name="Path 165" d="M832.531,364.244h-5.5a.416.416,0,0,0,0,.832h5.5a.416.416,0,1,0,0-.832Z" transform="translate(-567.172 -243.426)" fill="#3f3d56"/>
  <rect id="Rectangle_47" data-name="Rectangle 47" width="19.096" height="4.083" rx="2.042" transform="translate(215.574 145.205)" fill="#dcc43e"/>
  <rect id="Rectangle_48" data-name="Rectangle 48" width="38.492" height="4.083" rx="2.042" transform="translate(205.876 153.372)" fill="#dcc43e"/>
  <rect id="Rectangle_49" data-name="Rectangle 49" width="38.492" height="4.083" rx="2.042" transform="translate(205.876 161.539)" fill="#dcc43e"/>
  <ellipse id="Ellipse_67" data-name="Ellipse 67" cx="8.848" cy="2.824" rx="8.848" ry="2.824" transform="translate(149.966 212.823)" fill="#3f3d56"/>
  <ellipse id="Ellipse_68" data-name="Ellipse 68" cx="8.848" cy="2.824" rx="8.848" ry="2.824" transform="translate(149.966 210.94)" fill="#3f3d56"/>
  <path id="Path_166" data-name="Path 166" d="M551.591,502.486l-1.318-.02.364-24.619a22.966,22.966,0,0,0-11.149-20L514.323,442.81l.676-1.132,25.164,15.042a24.288,24.288,0,0,1,11.791,21.147Z" transform="translate(-392.119 -286.83)" fill="#3f3d56"/>
  <rect id="Rectangle_50" data-name="Rectangle 50" width="6.4" height="26.355" rx="3.2" transform="translate(119.658 140.723)" fill="#dcc43e"/>
  <path id="Path_167" data-name="Path 167" d="M498.323,456.989a9.62,9.62,0,0,1-9.606-9.5l-.109-10.11,1.318-.014.109,10.111a8.274,8.274,0,0,0,13.394,6.41l8.972-7.068.816,1.036-8.972,7.068A9.551,9.551,0,0,1,498.323,456.989Z" transform="translate(-377.705 -284.412)" fill="#3f3d56"/>
  <ellipse id="Ellipse_69" data-name="Ellipse 69" cx="3.953" cy="9.601" rx="3.953" ry="9.601" transform="translate(108.928 142.041)" fill="#3f3d56"/>
  <path id="Path_168" data-name="Path 168" d="M366.433,479.345c-.343-2.154-.572-4.514-.723-6.984-.354-5.651-.32-11.882-.361-17.582-.017-2.591-.223-5.419-.489-8.046a15.158,15.158,0,0,0-7.466-11.636,15.345,15.345,0,0,1-3.777-3.077c-.587-.655-.659-2.169-.734-3.769-.09-1.946-.184-3.965-1.227-5l-.045-.045-.06-.023c-4.379-1.457-11.777-.512-13.976,0l-.094.023-.06.075c-.907,1.2-.858,3.121-.809,4.977.041,1.668.083,3.245-.655,3.72-.572.369-1.122.719-1.653,1.058-6.51,4.153-9.778,6.239-12.172,13.019a8.969,8.969,0,0,0-.448,3.008,7.26,7.26,0,0,1-.384,3.185,27.4,27.4,0,0,0-1.815,6.675c-3.038,16.6-4.842,55.2,2.583,56.1.58.072-.6,1.235-1.009,1.818-.584.84-1.084,1.562-.794,2.116.2.376.708.553,1.6.553,3.381,0,38.135-5.1,39.122-6.939.064-.12.072.105,0,0C377.284,510.44,368.658,493.423,366.433,479.345Z" transform="translate(-281.428 -276.025)" fill="#dcc43e"/>
  <path id="Path_169" data-name="Path 169" d="M475.693,581.73a6.873,6.873,0,0,0-10.514.735L441.8,575.4l3.625,12.164,21.649,4.842a6.911,6.911,0,0,0,8.623-10.679Z" transform="translate(-351.466 -361.785)" fill="#ffb6b6"/>
  <path id="Path_170" data-name="Path 170" d="M394.489,527.264l-32.108-5.893c-.13-.336-13.02-33.7-14.613-41.2a20.288,20.288,0,0,1,1.609-13.4l.057-.1.105-.045a10.3,10.3,0,0,1,12.4,3.467,72.925,72.925,0,0,1,12.59,30.994l.981,6.353,15.3,4.447Z" transform="translate(-298.488 -300.354)" fill="#dcc43e"/>
  <path id="Path_171" data-name="Path 171" d="M387.2,366.147a18.192,18.192,0,1,1,.924-15.5c.083.208.158.416.233.633a18.167,18.167,0,0,1-1.158,14.866Z" transform="translate(-301.719 -229.403)" fill="#ffb6b6"/>
  <path id="Path_172" data-name="Path 172" d="M407.226,347.1c-.783-2.19-.441-1.049-1.233-3.231a5.446,5.446,0,0,1-.225,3.231H384.107V334.5c6.346-2.515,12.55-4.655,16.3,0A12.592,12.592,0,0,1,413,347.1Z" transform="translate(-319.129 -225.217)" fill="#2f2e41"/>
  <path id="Path_173" data-name="Path 173" d="M367.148,379.461c-.017-.233-.042-.475-.075-.708a24.521,24.521,0,0,0-1.407-5c-.625-1.757-1.258-3.523-1.89-5.28a15.117,15.117,0,0,1-.708,9.594c-3.656-2.848-1.9-7.136-6.129-9.361-11.354-5.972-15.283-15.622-12.107-30.444,1.129-5.271,7.709-10.542,19.2-10.542s16.628,5.718,16.853,17.211C366.727,348.266,369.821,378.3,367.148,379.461Z" transform="translate(-296.519 -222.956)" fill="#2f2e41"/>
  <circle id="Ellipse_70" data-name="Ellipse 70" cx="7.516" cy="7.516" r="7.516" transform="translate(41.939 100.825)" fill="#2f2e41"/>
  <path id="Path_174" data-name="Path 174" d="M282.194,315.385c-1.282,1.492-3.289,2.072-5.1,2.849a21.451,21.451,0,0,0-12.462,15.672c-.5,2.793-.435,5.684-1.226,8.407s-2.732,5.394-5.525,5.866c-1.89.323-3.785-.407-5.562-1.127q-1.467-.589-2.933-1.184,1.53-3.838,3.055-7.677a38.9,38.9,0,0,1-5.665,6.629q-5.256-2.119-10.521-4.238c8.636.033,7.162-8.35,9.094-16.762,1.062-4.622,10.1-7.752,11.878-12.149a13.452,13.452,0,0,1,24.4-1.226C283.4,311.151,283.452,313.911,282.194,315.385Z" transform="translate(-236.255 -209.228)" fill="#2f2e41"/>
  <path id="Path_175" data-name="Path 175" d="M2.824,0h0A2.824,2.824,0,0,1,5.647,2.824v21a2.824,2.824,0,0,1-2.824,2.824h0A2.824,2.824,0,0,1,0,23.825v-21A2.824,2.824,0,0,1,2.824,0Z" transform="translate(76.916 104.158) rotate(18.454)" fill="#fff"/>
  <circle id="Ellipse_71" data-name="Ellipse 71" cx="7.53" cy="7.53" r="7.53" transform="translate(63.031 124.007)" fill="#fff"/>
  <circle id="Ellipse_72" data-name="Ellipse 72" cx="1.882" cy="1.882" r="1.882" transform="translate(68.678 129.655)" fill="#dcc43e"/>
  <path id="Path_176" data-name="Path 176" d="M632.915,799.842c.4.98.848,1.96,1.274,2.944l-.2.013c-.066,0-.127.009-.193.013q-4.661.29-9.4.308c-.145,0-.286,0-.431,0,0-.009,0-.013,0-.022a1.588,1.588,0,0,0,1.151-2.751c-.044-.163-.07-.277-.11-.435a1.089,1.089,0,0,1,.044-.105,4.262,4.262,0,0,1,7.862.031Z" transform="translate(-453.574 -486.115)" fill="#f2f2f2"/>
  <path id="Path_177" data-name="Path 177" d="M660.512,720.123c0,.035-.009.066-.013.1a13.769,13.769,0,0,0-1.622.782c-.3.167-.6.347-.883.536a2.154,2.154,0,0,0,.87,3.92l.044.009.088.013a21.02,21.02,0,0,1-8.183,9.721c-.176.035-.347.066-.523.1-.888.163-1.771.312-2.659.448q-4.628.752-9.348,1.213a49.965,49.965,0,0,0,.949-9.677,48.032,48.032,0,0,0-.3-5.445c-.167-1.481-.4-2.958-.694-4.417q-.224-1.107-.5-2.211a51.67,51.67,0,0,0-4.289-11.264,50.179,50.179,0,0,0-5.357-8.209,13.582,13.582,0,0,1-5.66-5.876,10.279,10.279,0,0,1-.945-2.839c.272.04.554.061.831.079l.264.013h.031a1.572,1.572,0,0,0,1.292-2.562c-.119-.145-.237-.294-.356-.439-.18-.224-.369-.448-.549-.672a.753.753,0,0,1-.057-.066c-.207-.259-.417-.514-.624-.769a4.494,4.494,0,0,1,1.49-1.441,5.244,5.244,0,0,1,6.465,1.507,8.234,8.234,0,0,1,1.27,6.882,18.239,18.239,0,0,1-2.523,5.625c.114.145.229.281.343.426a51.13,51.13,0,0,1,5.032,7.854c.119.22.233.439.343.664a21.4,21.4,0,0,1,1.279-9.945c1.222-2.949,3.516-5.436,5.533-7.985a4.395,4.395,0,0,1,7.827,2.158c0,.035.009.075.013.11-.3.171-.593.352-.879.541a2.154,2.154,0,0,0,.866,3.92l.044.009a21.552,21.552,0,0,1-11.549,17.03c-.18.092-.352.185-.527.268a49.15,49.15,0,0,1,1.419,4.729c.193.747.36,1.5.514,2.255a51.3,51.3,0,0,1,.9,6.333,50.2,50.2,0,0,1-.035,8.047l.013-.092a13.19,13.19,0,0,1,4.5-7.607c3.463-2.843,8.35-3.889,12.086-6.175a2.47,2.47,0,0,1,3.784,2.4Z" transform="translate(-452.184 -420.749)" fill="#f2f2f2"/>
</svg>
