<svg id="Group_43" data-name="Group 43" xmlns="http://www.w3.org/2000/svg" width="402.892" height="252.677" viewBox="0 0 402.892 252.677">
  <ellipse id="Ellipse_56" data-name="Ellipse 56" cx="97.094" cy="4.522" rx="97.094" ry="4.522" transform="translate(0 243.633)" fill="#e6e6e6"/>
  <path id="Path_108" data-name="Path 108" d="M591.7,170.6a3.808,3.808,0,0,0-3.8,3.8V315.409a3.808,3.808,0,0,0,3.8,3.8H791.009a3.808,3.808,0,0,0,3.8-3.8V174.4a3.808,3.808,0,0,0-3.8-3.8Z" transform="translate(-391.921 -170.597)" fill="#e6e6e6"/>
  <path id="Path_109" data-name="Path 109" d="M597.355,320.118H795.718V180.061H597.355Z" transform="translate(-397.105 -175.782)" fill="#fff"/>
  <path id="Path_110" data-name="Path 110" d="M466.182,567a5.318,5.318,0,0,0-5.2,4.209H468.4v18.612h-7.416a5.317,5.317,0,0,0,10.518-1.108v-16.4A5.318,5.318,0,0,0,466.182,567Z" transform="translate(-322.396 -387.757)" fill="#3f3d56"/>
  <path id="Path_111" data-name="Path 111" d="M328.67,494.967a9.572,9.572,0,0,0-9.561,9.561v73.495a9.572,9.572,0,0,0,9.561,9.561h46.463a9.572,9.572,0,0,0,9.561-9.561V504.528a9.572,9.572,0,0,0-9.561-9.561Z" transform="translate(-244.674 -348.296)" fill="#3f3d56"/>
  <circle id="Ellipse_57" data-name="Ellipse 57" cx="4.875" cy="4.875" r="4.875" transform="translate(74.213 238.18)" fill="#3f3d56"/>
  <circle id="Ellipse_58" data-name="Ellipse 58" cx="4.875" cy="4.875" r="4.875" transform="translate(128.719 238.18)" fill="#3f3d56"/>
  <rect id="Rectangle_33" data-name="Rectangle 33" width="2.659" height="93.503" transform="translate(82.632 146.007)" fill="#4d4d4d"/>
  <rect id="Rectangle_34" data-name="Rectangle 34" width="2.659" height="93.503" transform="translate(90.166 146.007)" fill="#4d4d4d"/>
  <rect id="Rectangle_35" data-name="Rectangle 35" width="2.659" height="93.503" transform="translate(97.699 146.007)" fill="#4d4d4d"/>
  <rect id="Rectangle_36" data-name="Rectangle 36" width="2.659" height="93.503" transform="translate(105.233 146.007)" fill="#4d4d4d"/>
  <rect id="Rectangle_37" data-name="Rectangle 37" width="2.659" height="93.503" transform="translate(112.766 146.007)" fill="#4d4d4d"/>
  <rect id="Rectangle_38" data-name="Rectangle 38" width="2.659" height="93.503" transform="translate(120.299 146.007)" fill="#4d4d4d"/>
  <rect id="Rectangle_39" data-name="Rectangle 39" width="2.659" height="93.503" transform="translate(127.833 146.007)" fill="#4d4d4d"/>
  <path id="Path_112" data-name="Path 112" d="M379.284,466.005a19.23,19.23,0,0,0,2.653-9.749H334.853a19.233,19.233,0,0,0,2.654,9.751l-9.578,0a9.506,9.506,0,0,0,9.694,9.306h11.863a21.567,21.567,0,0,0,6.139.886h5.539a21.566,21.566,0,0,0,6.139-.886h11.863a9.506,9.506,0,0,0,9.694-9.306Z" transform="translate(-249.506 -327.089)" fill="#2f2e41"/>
  <path id="Path_113" data-name="Path 113" d="M343.314,614.363a4.694,4.694,0,0,1-2.592,4.64l-.024.013c-4.432,2.528-8.058,4.512-12.362,4.147a2.828,2.828,0,0,1-2.4-3.8l6.122-11.642c3.556-4.143,6.062-4.147,10.414-.665Z" transform="translate(-248.316 -408.311)" fill="#2f2e41"/>
  <path id="Path_114" data-name="Path 114" d="M420.611,614.363A4.694,4.694,0,0,0,423.2,619l.024.013c4.432,2.528,8.058,4.512,12.362,4.147a2.828,2.828,0,0,0,2.4-3.8l-6.122-11.642c-3.556-4.143-6.062-4.147-10.414-.665Z" transform="translate(-300.269 -408.311)" fill="#2f2e41"/>
  <path id="Path_115" data-name="Path 115" d="M355,293.78H337.97a3.591,3.591,0,0,1-3.443-2.551,19.54,19.54,0,0,1-1.212-4.983c-.042-5.971.255-9.771,2.88-12.186,8.748-6.633,15.086-5.413,21.049,1.551,2.093,3.891,1.556,9.7.424,15.937A2.71,2.71,0,0,1,355,293.78Z" transform="translate(-252.455 -224.88)" fill="#2f2e41"/>
  <circle id="Ellipse_59" data-name="Ellipse 59" cx="11.522" cy="11.522" r="11.522" transform="translate(82.189 53.39)" fill="#a0616a"/>
  <path id="Path_116" data-name="Path 116" d="M205.907,173.579l-15.953.443-1.329-17.283,15.51-.443Z" transform="translate(-103.334 -85.623)" fill="#a0616a"/>
  <path id="Path_117" data-name="Path 117" d="M372.4,387.535l-11.008,5.1c-1.844,4.375-4.387,4.25-7.6-.221-3.07,5.377-9.683,2.155-12.913-.194a14.874,14.874,0,0,0-13.453-.028l-6.355-28.177-5.388-23.892c3.62-3.112,8.443-5.067,13.073-6.426l9.084,11.3,6.2-11.078c4.312-3.467,10.369-3.473,16.839-2.659l3.778,20.2C362.165,367.387,365.912,375.379,372.4,387.535Z" transform="translate(-242.795 -258.368)" fill="#dcc43e"/>
  <path id="Path_118" data-name="Path 118" d="M332.5,521.185l-9.306.886-13.786-60.929a9.652,9.652,0,0,1,9.422-11.746h0a9.652,9.652,0,0,1,9.569,10.916l-1.66,12.57Z" transform="translate(-239.237 -323.331)" fill="#2f2e41"/>
  <path id="Path_119" data-name="Path 119" d="M422.5,522.071l9.306-.443,13.786-60.486a9.652,9.652,0,0,0-9.422-11.746h0a9.652,9.652,0,0,0-9.569,10.916l1.66,12.57Z" transform="translate(-301.316 -323.331)" fill="#2f2e41"/>
  <path id="Path_120" data-name="Path 120" d="M461.876,415.977l-7.869,20.3c-4.3-3.289-7.771-3.738-12.543-1.994-1.32-.183-2.3-3.084-2.3-4.416h0a2.669,2.669,0,0,1,2.548-2.666l7.2-.327a37.492,37.492,0,0,0,2.376-10.759A20.362,20.362,0,0,1,461.876,415.977Z" transform="translate(-310.443 -304.677)" fill="#a0616a"/>
  <path id="Path_121" data-name="Path 121" d="M449.226,370.789l1.918-7.158a12.053,12.053,0,0,0-5.436-14.1l-30.6-17.737-.443,19.5,22.6,9.749a40.091,40.091,0,0,1,.6,10.069A21.928,21.928,0,0,1,449.226,370.789Z" transform="translate(-297.021 -258.905)" fill="#dcc43e"/>
  <path id="Path_122" data-name="Path 122" d="M362.034,292.426l-11.965,2.216a8.42,8.42,0,0,1-8.42-8.42h20.828Z" transform="translate(-257.023 -233.94)" fill="#2f2e41"/>
  <ellipse id="Ellipse_60" data-name="Ellipse 60" cx="1.108" cy="2.216" rx="1.108" ry="2.216" transform="translate(81.968 58.486)" fill="#a0616a"/>
  <path id="Path_123" data-name="Path 123" d="M404.922,376.091h-.129v-3.525a2.04,2.04,0,0,0-2.04-2.04h-7.469a2.04,2.04,0,0,0-2.04,2.04v19.34a2.04,2.04,0,0,0,2.04,2.04h7.469a2.04,2.04,0,0,0,2.04-2.04V378.6h.129Z" transform="translate(-285.288 -280.124)" fill="#e6e6e6"/>
  <circle id="Ellipse_61" data-name="Ellipse 61" cx="1.773" cy="1.773" r="1.773" transform="translate(111.658 94.381)" fill="#6c63ff"/>
  <path id="Path_124" data-name="Path 124" d="M370.245,405.323c-9.115,7.156-18.255,13.112-25.037,13.959L344.1,407.1c6.514-.939,15.224-5.231,24.373-10.192l4.474-2.327a4.92,4.92,0,0,1,7.175,3.988h0a4.92,4.92,0,0,1-3.663,5.138Z" transform="translate(-258.365 -292.996)" fill="#a0616a"/>
  <path id="Path_125" data-name="Path 125" d="M332.7,394l-18.169.443a68.77,68.77,0,0,1-7.09-38.3,8.932,8.932,0,0,1,3.848-7.344l1.913-1.324c8.179,12.141,13.252,23.416,11.522,32.792l5.318-.443C326.593,384.471,328.187,389.21,332.7,394Z" transform="translate(-238.098 -267.495)" fill="#dcc43e"/>
  <path id="Path_126" data-name="Path 126" d="M189.841,544.268s.939-20.189,20.182-17.843" transform="translate(-173.858 -365.425)" fill="#e6e6e6"/>
  <path id="Path_127" data-name="Path 127" d="M189.02,669.894c-.024-.211-2.3-21.249,6.9-32.383a18.718,18.718,0,0,1,13.518-6.839l.061.793a17.951,17.951,0,0,0-12.965,6.551c-8.982,10.871-6.749,31.58-6.726,31.788Z" transform="translate(-173.263 -422.639)" fill="#e6e6e6"/>
  <rect id="Rectangle_40" data-name="Rectangle 40" width="0.8" height="88.454" transform="translate(14.98 158.2)" fill="#e6e6e6"/>
  <circle id="Ellipse_62" data-name="Ellipse 62" cx="6.571" cy="6.571" r="6.571" transform="translate(8.921 146.07)" fill="#dcc43e"/>
  <circle id="Ellipse_63" data-name="Ellipse 63" cx="6.529" cy="6.529" r="6.529" transform="translate(29.677 201.9)" fill="#e6e6e6"/>
  <path id="Path_128" data-name="Path 128" d="M645.423,241.8a10.913,10.913,0,1,0,10.913,10.913A10.913,10.913,0,0,0,645.423,241.8Zm5.027,11.976c-.113,0-.487,0-.6-.01l-2.15-.056a.065.065,0,0,0-.056.03l-3.227,4.825a.528.528,0,0,1-.447.245h-.785c-.186,0-.249-.186-.182-.358l1.66-4.735a.066.066,0,0,0-.06-.089l-4.032-.09a.272.272,0,0,0-.219.1l-1.249,1.514a.536.536,0,0,1-.417.2h-.553a.132.132,0,0,1-.126-.176l.659-2.276a.54.54,0,0,0,0-.394l-.659-2.276a.132.132,0,0,1,.126-.176h.557a.526.526,0,0,1,.417.2l1.226,1.491a.267.267,0,0,0,.219.1l4.056-.06a.065.065,0,0,0,.06-.089l-1.66-4.732c-.066-.172,0-.358.182-.358h.785a.532.532,0,0,1,.447.245l3.224,4.828a.061.061,0,0,0,.056.03l2.151-.056c.106-.007.484-.01.6-.01,1.471,0,2.4.477,2.4,1.064s-.928,1.06-2.4,1.06Z" transform="translate(-417.46 -209.603)" fill="#3f3d56"/>
  <rect id="Rectangle_41" data-name="Rectangle 41" width="2.713" height="0.904" transform="translate(252.943 42.595)" fill="#3f3d56"/>
  <path id="Path_129" data-name="Path 129" d="M821.845,265.7h-5.307v-.9h5.307Zm-10.614,0h-5.307v-.9h5.307Zm-10.614,0h-5.307v-.9h5.307ZM790,265.7H784.7v-.9H790Zm-10.614,0h-5.307v-.9h5.307Zm-10.614,0h-5.307v-.9h5.307Zm-10.614,0h-5.307v-.9h5.307Zm-10.614,0h-5.307v-.9h5.307Zm-10.614,0h-5.307v-.9h5.307Z" transform="translate(-470.662 -222.203)" fill="#3f3d56"/>
  <rect id="Rectangle_42" data-name="Rectangle 42" width="2.713" height="0.904" transform="translate(356.491 42.595)" fill="#3f3d56"/>
  <rect id="Rectangle_43" data-name="Rectangle 43" width="2.713" height="0.904" transform="translate(252.943 73.795)" fill="#3f3d56"/>
  <path id="Path_130" data-name="Path 130" d="M821.845,334.7h-5.307v-.9h5.307Zm-10.614,0h-5.307v-.9h5.307Zm-10.614,0h-5.307v-.9h5.307ZM790,334.7H784.7v-.9H790Zm-10.614,0h-5.307v-.9h5.307Zm-10.614,0h-5.307v-.9h5.307Zm-10.614,0h-5.307v-.9h5.307Zm-10.614,0h-5.307v-.9h5.307Zm-10.614,0h-5.307v-.9h5.307Z" transform="translate(-470.662 -260.003)" fill="#3f3d56"/>
  <rect id="Rectangle_44" data-name="Rectangle 44" width="2.713" height="0.904" transform="translate(356.491 73.795)" fill="#3f3d56"/>
  <rect id="Rectangle_45" data-name="Rectangle 45" width="2.713" height="0.904" transform="translate(252.943 104.995)" fill="#3f3d56"/>
  <path id="Path_131" data-name="Path 131" d="M821.845,403.7h-5.307v-.9h5.307Zm-10.614,0h-5.307v-.9h5.307Zm-10.614,0h-5.307v-.9h5.307ZM790,403.7H784.7v-.9H790Zm-10.614,0h-5.307v-.9h5.307Zm-10.614,0h-5.307v-.9h5.307Zm-10.614,0h-5.307v-.9h5.307Zm-10.614,0h-5.307v-.9h5.307Zm-10.614,0h-5.307v-.9h5.307Z" transform="translate(-470.662 -297.803)" fill="#3f3d56"/>
  <rect id="Rectangle_46" data-name="Rectangle 46" width="2.713" height="0.904" transform="translate(356.491 104.995)" fill="#3f3d56"/>
  <path id="Path_132" data-name="Path 132" d="M645.434,311.8a10.546,10.546,0,1,0,10.546,10.546A10.546,10.546,0,0,0,645.434,311.8ZM640.5,321.985l.583-3.1c.15-.842.541-1.505,1.275-1.505h1.1l.064-.253a1.024,1.024,0,0,1,.993-.772h1.825a1.025,1.025,0,0,1,.993.769l.064.256h1.108c.717,0,1.1.65,1.278,1.5v0l.586,3.1a.128.128,0,0,1-.179.141l-.813-.375a.122.122,0,0,1-.074-.093l-.519-2.741c-.1-.352-.231-.512-.516-.512H642.6c-.282,0-.435.17-.516.512l-.519,2.741a.129.129,0,0,1-.074.093l-.81.371a.129.129,0,0,1-.179-.141ZM651.8,323.98l-1.752,4.352a3.645,3.645,0,0,1-1.816-.7,7.669,7.669,0,0,1-2.539.6c-.09,0-.176.006-.256.006s-.167,0-.256-.006a7.748,7.748,0,0,1-2.539-.6,3.645,3.645,0,0,1-1.816.7l-1.752-4.352a.594.594,0,0,1-.042-.215.578.578,0,0,1,.336-.525l5.959-2.738a.252.252,0,0,1,.215,0l5.962,2.738a.579.579,0,0,1,.336.525.6.6,0,0,1-.042.215Z" transform="translate(-417.667 -247.951)" fill="#3f3d56"/>
  <path id="Path_133" data-name="Path 133" d="M662.617,398.192h-3.172a.13.13,0,0,0-.129.129v4.532a.13.13,0,0,0,.13.129h3.172a.519.519,0,0,0,.518-.518V398.71A.519.519,0,0,0,662.617,398.192Z" transform="translate(-431.049 -295.28)" fill="#3f3d56"/>
  <path id="Path_134" data-name="Path 134" d="M664.173,410.931a.779.779,0,1,0,.123,0,.779.779,0,0,0-.123,0Z" transform="translate(-433.317 -302.257)" fill="#3f3d56"/>
  <path id="Path_135" data-name="Path 135" d="M650.436,410.931a.779.779,0,1,0,.123,0A.779.779,0,0,0,650.436,410.931Z" transform="translate(-425.791 -302.257)" fill="#3f3d56"/>
  <path id="Path_136" data-name="Path 136" d="M652.554,398.192h-3.166a.526.526,0,0,0-.524.524v3.742a.526.526,0,0,0,.524.524h3.166a.13.13,0,0,0,.129-.129v-4.532A.13.13,0,0,0,652.554,398.192Z" transform="translate(-425.323 -295.28)" fill="#3f3d56"/>
  <path id="Path_137" data-name="Path 137" d="M645.4,380.916a10.66,10.66,0,1,0,10.66,10.66,10.66,10.66,0,0,0-10.66-10.66Zm5.179,15a1.3,1.3,0,0,1-1.295,1.295h-7.768a1.3,1.3,0,0,1-1.295-1.295V386.98a1.039,1.039,0,0,1,1.036-1.036h8.286a1.039,1.039,0,0,1,1.036,1.036Z" transform="translate(-417.585 -285.816)" fill="#3f3d56"/>
  <path id="Path_138" data-name="Path 138" d="M656.924,394.039H649.35a.454.454,0,1,0,0,.906h7.574a.454.454,0,1,0,0-.906Z" transform="translate(-425.323 -293.004)" fill="#3f3d56"/>
  <path id="Path_139" data-name="Path 139" d="M975.671,264.363a6.783,6.783,0,1,1,6.783-6.783A6.783,6.783,0,0,1,975.671,264.363Zm0-12.661a5.878,5.878,0,1,0,5.878,5.878,5.878,5.878,0,0,0-5.878-5.878Z" transform="translate(-600.641 -214.534)" fill="#dcc43e"/>
  <path id="Path_140" data-name="Path 140" d="M828.848,90.133l-.639-.639-1.941,1.941-1.941-1.941-.639.639,1.941,1.941-1.941,1.941.639.639,1.941-1.941,1.941,1.941.639-.639-1.941-1.941Z" transform="translate(-451.238 -49.027)" fill="#dcc43e"/>
  <path id="Path_141" data-name="Path 141" d="M975.671,333.363a6.783,6.783,0,1,1,6.783-6.783A6.783,6.783,0,0,1,975.671,333.363Zm0-12.661a5.878,5.878,0,1,0,5.878,5.878A5.878,5.878,0,0,0,975.671,320.7Z" transform="translate(-600.641 -252.334)" fill="#dcc43e"/>
  <path id="Path_142" data-name="Path 142" d="M828.848,159.133l-.639-.639-1.941,1.941-1.941-1.941-.639.639,1.941,1.941-1.941,1.941.639.639,1.941-1.941,1.941,1.941.639-.639-1.941-1.941Z" transform="translate(-451.238 -86.827)" fill="#dcc43e"/>
  <path id="Path_143" data-name="Path 143" d="M975.671,402.363a6.783,6.783,0,1,1,6.783-6.783A6.783,6.783,0,0,1,975.671,402.363Zm0-12.661a5.878,5.878,0,1,0,5.878,5.878A5.878,5.878,0,0,0,975.671,389.7Z" transform="translate(-600.641 -290.134)" fill="#dcc43e"/>
  <path id="Path_144" data-name="Path 144" d="M828.848,228.133l-.639-.639-1.941,1.941-1.941-1.941-.639.639,1.941,1.941-1.941,1.941.639.639,1.941-1.941,1.941,1.941.639-.639-1.941-1.941Z" transform="translate(-451.238 -124.627)" fill="#dcc43e"/>
</svg>
